<?xml version="1.0" encoding="utf-8"?>
<!-- Generator: Adobe Illustrator 17.0.0, SVG Export Plug-In . SVG Version: 6.00 Build 0)  -->
<!DOCTYPE svg PUBLIC "-//W3C//DTD SVG 1.1//EN" "http://www.w3.org/Graphics/SVG/1.1/DTD/svg11.dtd">
<svg version="1.1" id="Layer_1" xmlns="http://www.w3.org/2000/svg" xmlns:xlink="http://www.w3.org/1999/xlink" x="0px" y="0px"
	 width="38px" height="38px" viewBox="0 0 38 38" enable-background="new 0 0 38 38" xml:space="preserve">
<path fill="#F26A26" d="M38,28.141V27.93c-0.042-0.632-0.169-2.153-0.422-2.829c-0.21-0.695-0.658-1.293-1.267-1.689
	c-0.821-0.394-1.667-0.733-2.533-1.013c-1.067-0.357-2.11-0.78-3.124-1.267c-0.379-0.211-0.718-1.309-0.76-1.689
	c0-0.042,0.084-0.126,0.295-0.338c0.72-0.818,1.253-1.784,1.562-2.829c0.379-1.478,0.718-4.518-0.676-6.376
	c-0.802-1.056-2.027-1.647-3.673-1.689h-0.169c-1.647,0.042-2.871,0.632-3.673,1.689c-1.393,1.858-1.098,4.898-0.676,6.376
	c0.309,1.045,0.843,2.011,1.563,2.829c0.042,0.084,0.253,0.253,0.295,0.338c0.126,0.338-0.379,1.478-0.76,1.689
	c-1.004,0.477-2.033,0.9-3.082,1.267h-0.042c-0.295,0.126-0.549,0.211-0.802,0.295c-0.627-0.215-1.235-0.483-1.816-0.802
	c-0.591-0.338-1.056-1.9-1.056-2.364c0-0.042,0.042-0.126,0.379-0.506c0.927-1.061,1.605-2.316,1.984-3.673
	c0.506-1.942,0.929-5.869-0.887-8.276c-1.012-1.395-2.617-2.112-4.727-2.155h-0.211c-2.112,0.084-3.717,0.802-4.73,2.196
	C7.178,9.521,7.6,13.448,8.107,15.39c0.396,1.337,1.073,2.575,1.984,3.631l0,0c0.14,0.158,0.266,0.327,0.379,0.506
	c0.169,0.506-0.506,2.027-1.056,2.364c-0.676,0.379-2.491,1.056-4.139,1.689c-1.771,0.676-2.953,1.099-3.249,1.31
	c-0.772,0.506-1.341,1.269-1.605,2.153C0.211,27.93,0.084,29.957,0,30.759v0.211l0.169,0.169c0.464,0.464,2.871,1.942,13.722,1.942
	c10.767,0,13.216-1.52,13.722-1.984l0.169-0.169v-0.211c0-0.253-0.042-0.549-0.084-0.929c7.895-0.042,9.753-1.182,10.133-1.52
	L38,28.141z M13.891,32.11c-9.542,0-12.245-1.182-12.92-1.562c0.052-1.082,0.208-2.157,0.464-3.209
	c0.208-0.684,0.639-1.278,1.224-1.689c0.253-0.169,1.942-0.802,3.082-1.224c1.731-0.632,3.547-1.309,4.266-1.731
	c0.887-0.506,1.858-2.491,1.478-3.504c-0.122-0.327-0.326-0.618-0.591-0.845l0,0c-0.824-0.94-1.43-2.051-1.775-3.252
	C8.655,13.32,8.275,9.773,9.838,7.62c0.845-1.139,2.153-1.73,3.97-1.772h0.169c1.816,0.042,3.124,0.676,3.969,1.773
	c1.562,2.111,1.182,5.7,0.718,7.473c-0.362,1.194-0.965,2.301-1.773,3.251c-0.464,0.506-0.632,0.76-0.676,1.14
	c0,0.676,0.506,2.66,1.52,3.251c0.311,0.179,0.636,0.334,0.97,0.464c0.379,0.169,0.801,0.337,1.267,0.506
	c0.632,0.253,1.351,0.506,2.027,0.76c1.14,0.422,2.829,1.056,3.082,1.224c0.506,0.338,0.887,0.718,1.224,1.689
	c0.147,0.496,0.246,1.005,0.295,1.52c0.042,0.295,0.084,0.632,0.126,0.929c0.042,0.253,0.042,0.506,0.084,0.76
	C26.136,30.928,23.433,32.11,13.891,32.11L13.891,32.11z M27.613,28.859c-0.06-0.617-0.187-1.226-0.379-1.816
	c-0.422-1.182-0.929-1.731-1.605-2.153c-1.068-0.507-2.168-0.944-3.293-1.309c-0.338-0.126-0.676-0.253-0.971-0.379
	c1.049-0.367,2.078-0.789,3.082-1.267c0.718-0.422,1.478-1.942,1.182-2.787c-0.121-0.247-0.277-0.475-0.464-0.676
	c-0.603-0.7-1.049-1.521-1.31-2.408c-0.338-1.309-0.632-4.011,0.549-5.573c0.632-0.845,1.605-1.267,2.956-1.309h0.084
	c1.351,0.042,2.322,0.464,2.956,1.309c1.182,1.562,0.887,4.266,0.549,5.573c-0.274,0.889-0.735,1.71-1.351,2.407
	c-0.338,0.379-0.506,0.632-0.506,0.929c0,0.549,0.379,2.069,1.224,2.533c0.549,0.338,1.942,0.845,3.251,1.309
	c0.802,0.295,2.153,0.802,2.322,0.929c0.431,0.291,0.745,0.725,0.887,1.224c0.184,0.762,0.297,1.539,0.338,2.322
	C36.522,28.015,34.411,28.817,27.613,28.859z"/>
</svg>
