<?xml version="1.0" encoding="utf-8"?>
<!-- Generator: Adobe Illustrator 17.0.0, SVG Export Plug-In . SVG Version: 6.00 Build 0)  -->
<!DOCTYPE svg PUBLIC "-//W3C//DTD SVG 1.1//EN" "http://www.w3.org/Graphics/SVG/1.1/DTD/svg11.dtd">
<svg version="1.1" id="Layer_1" xmlns="http://www.w3.org/2000/svg" xmlns:xlink="http://www.w3.org/1999/xlink" x="0px" y="0px"
	 width="38px" height="38px" viewBox="0 0 38 38" enable-background="new 0 0 38 38" xml:space="preserve">
<path fill="#F26A26" d="M19.155,6.747c3.857,0,6.984,3.127,6.984,6.984s-3.127,6.984-6.984,6.984c-3.857,0-6.984-3.127-6.984-6.984
	C12.175,9.876,15.299,6.752,19.155,6.747 M19.155,5.809c-4.375,0-7.922,3.547-7.922,7.922s3.547,7.922,7.922,7.922
	c4.375,0,7.922-3.547,7.922-7.922C27.077,9.356,23.531,5.809,19.155,5.809C19.155,5.809,19.155,5.809,19.155,5.809z"/>
<path fill="#F26A26" d="M19.155,27.463c-0.946,0.017-1.751-0.686-1.861-1.626c-0.068-0.514-0.539-0.875-1.053-0.808
	c-0.271,0.036-0.513,0.188-0.662,0.416c-0.563,0.87-1.725,1.118-2.595,0.555c-0.719-0.465-1.031-1.359-0.759-2.171
	c0.162-0.492-0.105-1.023-0.597-1.185c-0.26-0.086-0.545-0.054-0.779,0.088c-0.887,0.535-2.041,0.249-2.576-0.638
	c-0.438-0.727-0.334-1.658,0.255-2.27c0.359-0.373,0.348-0.967-0.025-1.327c-0.197-0.189-0.466-0.284-0.738-0.258
	c-1.032,0.097-1.947-0.661-2.044-1.693c-0.079-0.847,0.42-1.641,1.218-1.936c0.486-0.18,0.734-0.72,0.554-1.206
	c-0.095-0.256-0.297-0.459-0.554-0.554c-0.972-0.36-1.468-1.439-1.108-2.411c0.295-0.797,1.09-1.296,1.936-1.216
	c0.516,0.048,0.973-0.331,1.021-0.847C8.814,8.106,8.72,7.836,8.531,7.639c-0.719-0.747-0.696-1.934,0.05-2.653
	c0.612-0.589,1.543-0.694,2.27-0.255c0.444,0.268,1.02,0.125,1.288-0.318c0.141-0.234,0.174-0.519,0.088-0.779
	c-0.326-0.984,0.208-2.045,1.192-2.371c0.808-0.267,1.694,0.042,2.16,0.754c0.284,0.434,0.865,0.555,1.299,0.272
	c0.229-0.15,0.381-0.392,0.417-0.663c0.134-1.028,1.075-1.753,2.102-1.619c0.845,0.11,1.509,0.774,1.619,1.619
	c0.068,0.514,0.539,0.875,1.053,0.808c0.271-0.036,0.513-0.188,0.662-0.416c0.565-0.868,1.728-1.114,2.596-0.549
	c0.715,0.465,1.026,1.354,0.757,2.163c-0.162,0.492,0.105,1.023,0.597,1.185c0.26,0.086,0.545,0.054,0.779-0.088
	c0.887-0.535,2.041-0.249,2.576,0.638c0.438,0.727,0.334,1.658-0.255,2.27c-0.359,0.373-0.348,0.967,0.025,1.327
	c0.197,0.189,0.466,0.284,0.738,0.258c1.032-0.098,1.947,0.659,2.045,1.691c0.08,0.847-0.419,1.641-1.217,1.937
	c-0.486,0.18-0.734,0.72-0.554,1.206c0.095,0.256,0.297,0.459,0.554,0.554c0.972,0.36,1.468,1.439,1.108,2.411
	c-0.295,0.798-1.09,1.297-1.937,1.217c-0.516-0.048-0.973,0.331-1.021,0.847c-0.025,0.272,0.069,0.541,0.258,0.738
	c0.719,0.747,0.696,1.934-0.05,2.653c-0.612,0.589-1.543,0.694-2.27,0.255c-0.444-0.268-1.02-0.126-1.288,0.318
	c-0.142,0.234-0.174,0.519-0.088,0.779c0.326,0.984-0.206,2.045-1.19,2.372c-0.809,0.269-1.698-0.043-2.163-0.757
	c-0.284-0.433-0.865-0.555-1.299-0.271c-0.228,0.15-0.38,0.391-0.416,0.662C20.908,26.775,20.102,27.481,19.155,27.463z
	 M16.355,24.086c0.143,0,0.286,0.016,0.426,0.048c0.765,0.17,1.342,0.801,1.443,1.579c0.063,0.514,0.532,0.88,1.046,0.816
	c0.427-0.053,0.764-0.389,0.816-0.816c0.137-1.027,1.081-1.748,2.109-1.611c0.539,0.072,1.02,0.375,1.319,0.829
	c0.28,0.436,0.861,0.562,1.297,0.282c0.362-0.233,0.519-0.682,0.381-1.09c-0.322-0.985,0.215-2.045,1.2-2.367
	c0.517-0.169,1.082-0.105,1.549,0.174c0.441,0.271,1.019,0.133,1.291-0.308c0.225-0.367,0.172-0.84-0.129-1.148
	c-0.718-0.748-0.693-1.935,0.054-2.653c0.393-0.377,0.929-0.565,1.471-0.515c0.515,0.056,0.978-0.316,1.034-0.832
	c0.047-0.432-0.209-0.84-0.619-0.985c-0.971-0.362-1.464-1.443-1.102-2.414c0.19-0.51,0.592-0.912,1.102-1.102
	c0.487-0.177,0.739-0.715,0.562-1.202c-0.147-0.404-0.549-0.657-0.976-0.614c-1.032,0.095-1.945-0.665-2.04-1.697
	c-0.05-0.542,0.138-1.079,0.515-1.471c0.361-0.372,0.352-0.966-0.019-1.327c-0.307-0.298-0.776-0.351-1.142-0.128
	c-0.889,0.533-2.041,0.245-2.574-0.643c-0.28-0.467-0.344-1.032-0.174-1.549c0.168-0.49-0.094-1.024-0.584-1.191
	c-0.409-0.14-0.86,0.018-1.093,0.381c-0.569,0.866-1.732,1.107-2.598,0.538c-0.455-0.299-0.758-0.78-0.83-1.32l0,0
	c-0.063-0.514-0.532-0.88-1.046-0.816c-0.427,0.053-0.764,0.389-0.816,0.816c-0.137,1.027-1.081,1.748-2.109,1.611
	c-0.539-0.072-1.02-0.375-1.319-0.829c-0.28-0.436-0.861-0.562-1.297-0.282c-0.362,0.233-0.519,0.682-0.381,1.09
	c0.322,0.985-0.215,2.045-1.2,2.367c-0.517,0.169-1.082,0.105-1.549-0.174C9.927,5.263,9.35,5.401,9.079,5.843
	C8.854,6.209,8.907,6.682,9.208,6.989c0.718,0.748,0.693,1.935-0.054,2.653c-0.393,0.377-0.929,0.565-1.471,0.515
	c-0.515-0.054-0.977,0.319-1.032,0.834c-0.045,0.43,0.209,0.836,0.617,0.982c0.971,0.362,1.464,1.443,1.102,2.414
	c-0.19,0.51-0.592,0.912-1.102,1.102c-0.487,0.177-0.739,0.715-0.562,1.202c0.147,0.404,0.549,0.657,0.976,0.614
	c1.032-0.095,1.945,0.665,2.04,1.697c0.05,0.542-0.138,1.079-0.515,1.471c-0.363,0.37-0.357,0.964,0.013,1.327
	c0.308,0.301,0.781,0.355,1.148,0.129c0.889-0.533,2.041-0.245,2.574,0.643c0.28,0.467,0.344,1.032,0.174,1.549
	c-0.166,0.491,0.097,1.023,0.588,1.189c0.408,0.138,0.857-0.019,1.09-0.381c0.343-0.527,0.93-0.845,1.559-0.845L16.355,24.086z"/>
<path fill="#F26A26" d="M13.578,37.742c-0.01,0-0.02,0-0.031,0c-0.176-0.011-0.33-0.12-0.4-0.281l-1.951-4.542l-5.28,0.443
	c-0.258,0.021-0.485-0.171-0.505-0.43c-0.008-0.094,0.013-0.188,0.06-0.269l5.805-10.233c0.132-0.223,0.419-0.297,0.642-0.165
	c0.218,0.128,0.294,0.406,0.173,0.628l-5.367,9.459l4.73-0.4c0.2-0.015,0.388,0.098,0.469,0.281l1.722,4.008l5.473-9.171
	c0.133-0.223,0.421-0.295,0.643-0.162c0.223,0.133,0.295,0.421,0.162,0.643l0,0l-5.942,9.961
	C13.897,37.655,13.744,37.742,13.578,37.742z"/>
<path fill="#F26A26" d="M24.18,38c-0.165,0-0.318-0.087-0.403-0.229l-5.265-8.825c-0.136-0.221-0.067-0.51,0.153-0.645
	c0.221-0.136,0.51-0.067,0.645,0.153c0.002,0.004,0.005,0.008,0.007,0.012l4.794,8.035l1.722-4.008
	c0.082-0.183,0.269-0.295,0.469-0.281l4.73,0.4l-5.365-9.459c-0.128-0.226-0.049-0.512,0.177-0.64
	c0.226-0.128,0.512-0.049,0.64,0.177l5.805,10.233c0.127,0.226,0.047,0.512-0.179,0.639c-0.082,0.046-0.176,0.066-0.269,0.059
	l-5.28-0.446l-1.951,4.543c-0.07,0.161-0.224,0.27-0.4,0.281C24.201,38,24.19,38,24.18,38z"/>
</svg>
