<svg xmlns="http://www.w3.org/2000/svg" viewBox="0 0 119.7 135.098"><title>Icons</title><path d="M59.6,71.542a25.483,25.483,0,0,1-25.67-25.233,25.674,25.674,0,0,1,51.34,0A25.483,25.483,0,0,1,59.6,71.542Zm0-47.468a22.481,22.481,0,0,0-22.67,22.234,22.674,22.674,0,0,0,45.34,0A22.481,22.481,0,0,0,59.6,24.074Z" fill="#f26a26"/><path d="M34.488,135.1,22.474,116.961,0,115.845,23.827,74.869a1.5,1.5,0,0,1,2.594,1.508L5.07,113.093l19.067.946,10.19,15.385,22.63-38.757a1.5,1.5,0,1,1,2.59,1.512Z" fill="#f26a26"/><path d="M85.2,135.1,60.143,92.179a1.5,1.5,0,0,1,2.59-1.512l22.63,38.757,10.19-15.385,19.058-.946L92.935,76.111a1.5,1.5,0,0,1,2.588-1.518L119.7,115.845l-22.483,1.116Z" fill="#f26a26"/><path d="M59.6,92.617c-25.989,0-47.133-20.774-47.133-46.309S33.613,0,59.6,0s47.133,20.774,47.133,46.309S85.592,92.617,59.6,92.617ZM59.6,3C35.268,3,15.47,22.428,15.47,46.309S35.268,89.617,59.6,89.617s44.133-19.428,44.133-43.309S83.938,3,59.6,3Z" fill="#f26a26"/></svg>