<?xml version="1.0" encoding="utf-8"?>
<!-- Generator: Adobe Illustrator 17.0.0, SVG Export Plug-In . SVG Version: 6.00 Build 0)  -->
<!DOCTYPE svg PUBLIC "-//W3C//DTD SVG 1.1//EN" "http://www.w3.org/Graphics/SVG/1.1/DTD/svg11.dtd">
<svg version="1.1" id="Capa_1" xmlns="http://www.w3.org/2000/svg" xmlns:xlink="http://www.w3.org/1999/xlink" x="0px" y="0px"
	 width="512px" height="512px" viewBox="0 0 512 512" enable-background="new 0 0 512 512" xml:space="preserve">
<g>
	<g>
		<path fill="#FFFFFF" d="M512,256C512,114.845,397.155,0,256,0S0,114.845,0,256s114.845,256,256,256S512,397.155,512,256z
			 M25.579,256C25.579,128.94,128.94,25.579,256,25.579S486.421,128.94,486.421,256S383.06,486.421,256,486.421
			S25.579,383.06,25.579,256z"/>
		<path fill="#FFFFFF" d="M337.018,304.339c2.506-2.506,3.759-5.742,3.759-9.083s-1.253-6.578-3.759-9.083
			c-5.011-5.011-13.051-5.011-18.062,0l-50.114,50.114V144.809c0-7.099-5.742-12.842-12.842-12.842s-12.842,5.742-12.842,12.842
			v191.478l-50.114-50.114c-5.011-5.011-13.051-5.011-18.062,0c-5.011,5.011-5.011,13.051,0,18.062l71.935,71.935
			c5.011,5.011,13.051,5.011,18.062,0L337.018,304.339z"/>
	</g>
</g>
</svg>
