<?xml version="1.0" encoding="utf-8"?>
<!-- Generator: Adobe Illustrator 20.1.0, SVG Export Plug-In . SVG Version: 6.00 Build 0)  -->
<svg version="1.1" id="Capa_1" xmlns="http://www.w3.org/2000/svg" xmlns:xlink="http://www.w3.org/1999/xlink" x="0px" y="0px"
	 viewBox="0 0 512 512" style="enable-background:new 0 0 512 512;" xml:space="preserve">
<style type="text/css">
	.st0{fill:#FFFFFF;}
</style>
<g>
	<g>
		<path class="st0" d="M0,256c0,141.2,114.8,256,256,256s256-114.8,256-256S397.2,0,256,0S0,114.8,0,256z M486.4,256
			c0,127.1-103.4,230.4-230.4,230.4S25.6,383.1,25.6,256S128.9,25.6,256,25.6S486.4,128.9,486.4,256z"/>
		<path class="st0" d="M175,207.7c-2.5,2.5-3.8,5.7-3.8,9.1s1.3,6.6,3.8,9.1c5,5,13.1,5,18.1,0l50.1-50.1v191.5
			c0,7.1,5.7,12.8,12.8,12.8c7.1,0,12.8-5.7,12.8-12.8V175.7l50.1,50.1c5,5,13.1,5,18.1,0c5-5,5-13.1,0-18.1l-71.9-71.9
			c-5-5-13.1-5-18.1,0L175,207.7z"/>
	</g>
</g>
</svg>
