<?xml version="1.0" encoding="utf-8"?>
<!-- Generator: Adobe Illustrator 20.1.0, SVG Export Plug-In . SVG Version: 6.00 Build 0)  -->
<svg version="1.1" id="Capa_1" xmlns="http://www.w3.org/2000/svg" xmlns:xlink="http://www.w3.org/1999/xlink" x="0px" y="0px"
	 viewBox="0 0 512 512" style="enable-background:new 0 0 512 512;" xml:space="preserve">
<style type="text/css">
	.st0{fill:#F26925;}
</style>
<g>
	<g>
		<path class="st0" d="M512,256C512,114.8,397.2,0,256,0S0,114.8,0,256s114.8,256,256,256S512,397.2,512,256z M25.6,256
			C25.6,128.9,128.9,25.6,256,25.6S486.4,128.9,486.4,256S383.1,486.4,256,486.4S25.6,383.1,25.6,256z"/>
		<path class="st0" d="M337,304.3c2.5-2.5,3.8-5.7,3.8-9.1s-1.3-6.6-3.8-9.1c-5-5-13.1-5-18.1,0l-50.1,50.1V144.8
			c0-7.1-5.7-12.8-12.8-12.8s-12.8,5.7-12.8,12.8v191.5L193,286.2c-5-5-13.1-5-18.1,0s-5,13.1,0,18.1l71.9,71.9c5,5,13.1,5,18.1,0
			L337,304.3z"/>
	</g>
</g>
</svg>
