<?xml version="1.0" encoding="utf-8"?>
<!-- Generator: Adobe Illustrator 17.0.0, SVG Export Plug-In . SVG Version: 6.00 Build 0)  -->
<!DOCTYPE svg PUBLIC "-//W3C//DTD SVG 1.1//EN" "http://www.w3.org/Graphics/SVG/1.1/DTD/svg11.dtd">
<svg version="1.1" id="Layer_1" xmlns="http://www.w3.org/2000/svg" xmlns:xlink="http://www.w3.org/1999/xlink" x="0px" y="0px"
	 width="38px" height="38px" viewBox="0 0 38 38" enable-background="new 0 0 38 38" xml:space="preserve">
<path fill="#FFFFFF" d="M19,38C8.507,38,0,29.493,0,19S8.507,0,19,0s19,8.507,19,19C37.988,29.489,29.489,37.988,19,38z M19,0.927
	C9.018,0.927,0.927,9.018,0.927,19S9.018,37.073,19,37.073S37.073,28.982,37.073,19C37.062,9.023,28.977,0.938,19,0.927z"/>
<path fill="#FFFFFF" d="M24.119,10.665H13.885c-1.78,0-3.223,1.442-3.226,3.222v10.228c0.003,1.779,1.445,3.22,3.224,3.222h10.237
	c1.778-0.003,3.219-1.443,3.222-3.222V13.886C27.338,12.108,25.898,10.667,24.119,10.665z M25.046,12.587h0.368v2.827l-2.818,0.011
	l-0.01-2.827L25.046,12.587z M16.622,17.289c0.948-1.31,2.779-1.604,4.089-0.655c1.31,0.948,1.604,2.779,0.655,4.089
	c-0.948,1.31-2.779,1.604-4.089,0.655c-0.762-0.552-1.213-1.436-1.211-2.378C16.067,18.385,16.262,17.787,16.622,17.289z
	 M25.72,24.114c-0.001,0.882-0.717,1.597-1.599,1.597H13.885c-0.882,0-1.598-0.715-1.598-1.597v-6.825h2.49
	c-0.949,2.334,0.174,4.995,2.507,5.944c2.334,0.949,4.995-0.174,5.944-2.507c0.448-1.102,0.448-2.335,0-3.436h2.492V24.114z"/>
</svg>
