<?xml version="1.0" encoding="utf-8"?>
<!-- Generator: Adobe Illustrator 17.0.0, SVG Export Plug-In . SVG Version: 6.00 Build 0)  -->
<!DOCTYPE svg PUBLIC "-//W3C//DTD SVG 1.1//EN" "http://www.w3.org/Graphics/SVG/1.1/DTD/svg11.dtd">
<svg version="1.1" id="Layer_1" xmlns="http://www.w3.org/2000/svg" xmlns:xlink="http://www.w3.org/1999/xlink" x="0px" y="0px"
	 width="38px" height="38px" viewBox="0 0 38 38" enable-background="new 0 0 38 38" xml:space="preserve">
<polygon fill="#F26A26" points="16.445,14.25 20.785,9.885 29.039,9.885 29.039,18.137 24.698,22.503 25.228,23.033 29.789,18.447 
	29.789,9.135 20.475,9.135 15.915,13.72 "/>
<polygon fill="#F26A26" points="22.51,24.705 16.788,30.461 8.533,22.208 14.256,16.452 13.725,15.921 7.472,22.208 16.788,31.522 
	23.039,25.235 "/>
<path fill="#F26A26" d="M26.068,14.259c-0.373,0.001-0.731-0.147-0.993-0.412c-0.547-0.549-0.547-1.437,0-1.986
	c0.556-0.531,1.431-0.531,1.987,0c0.548,0.549,0.548,1.438,0,1.986C26.798,14.111,26.44,14.259,26.068,14.259L26.068,14.259z
	 M26.068,12.198c-0.174-0.001-0.34,0.068-0.463,0.191c-0.255,0.256-0.255,0.671,0,0.927c0.259,0.248,0.667,0.248,0.926,0
	c0.255-0.256,0.255-0.67,0-0.926C26.408,12.267,26.242,12.198,26.068,12.198z"/>
<path fill="#F26A26" d="M19,38C8.507,38,0,29.493,0,19S8.507,0,19,0s19,8.507,19,19C37.988,29.489,29.489,37.988,19,38z M19,0.847
	C8.974,0.847,0.847,8.974,0.847,19S8.974,37.153,19,37.153S37.153,29.026,37.153,19l0,0C37.142,8.979,29.021,0.858,19,0.847z"/>
<rect x="18.517" y="0.334" transform="matrix(-0.7071 0.7071 -0.7071 -0.7071 45.7253 18.9397)" fill="#F26A26" width="0.847" height="37.211"/>
</svg>
