<?xml version="1.0" encoding="utf-8"?>
<!-- Generator: Adobe Illustrator 20.1.0, SVG Export Plug-In . SVG Version: 6.00 Build 0)  -->
<svg version="1.1" id="Layer_1" xmlns="http://www.w3.org/2000/svg" xmlns:xlink="http://www.w3.org/1999/xlink" x="0px" y="0px"
	 viewBox="0 0 1120.9 716" style="enable-background:new 0 0 1120.9 716;" xml:space="preserve">
<style type="text/css">
	.st0{fill:none;stroke:#F8F8F9;stroke-width:0.5;stroke-miterlimit:10;}
	.st1{fill:none;stroke:#F8F8F9;stroke-width:3.8;stroke-miterlimit:10;}
	.st2{fill:none;stroke:#F8F8F9;stroke-width:7.1;stroke-miterlimit:10;}
	.st3{fill:none;stroke:#F8F8F9;stroke-width:10.4;stroke-miterlimit:10;}
	.st4{fill:none;stroke:#F8F8F9;stroke-width:13.7;stroke-miterlimit:10;}
	.st5{fill:none;stroke:#F8F8F9;stroke-width:17;stroke-miterlimit:10;}
	.st6{fill:none;stroke:#F8F8F9;stroke-width:20.3;stroke-miterlimit:10;}
	.st7{fill:none;stroke:#F8F8F9;stroke-width:23.6;stroke-miterlimit:10;}
	.st8{fill:none;stroke:#F8F8F9;stroke-width:26.9;stroke-miterlimit:10;}
	.st9{fill:none;stroke:#F8F8F9;stroke-width:30.2;stroke-miterlimit:10;}
	.st10{fill:none;stroke:#F8F8F9;stroke-width:33.5;stroke-miterlimit:10;}
	.st11{fill:none;stroke:#F8F8F9;stroke-width:36.8;stroke-miterlimit:10;}
	.st12{fill:none;stroke:#F8F8F9;stroke-width:40.1;stroke-miterlimit:10;}
	.st13{fill:none;stroke:#F8F8F9;stroke-width:43.4;stroke-miterlimit:10;}
	.st14{fill:none;stroke:#F8F8F9;stroke-width:46.7;stroke-miterlimit:10;}
	.st15{fill:none;stroke:#F8F8F9;stroke-width:50;stroke-miterlimit:10;}
</style>
<g>
	<line class="st0" x1="-322" y1="-851.2" x2="127.9" y2="1302.4"/>
	<line class="st1" x1="-141.6" y1="-775.2" x2="102.3" y2="1289.6"/>
	<line class="st2" x1="38.7" y1="-699.2" x2="76.7" y2="1276.8"/>
	<line class="st3" x1="219.1" y1="-623.2" x2="51.1" y2="1264"/>
	<line class="st4" x1="399.5" y1="-547.2" x2="25.5" y2="1251.2"/>
	<line class="st5" x1="579.8" y1="-471.2" x2="0" y2="1238.4"/>
	<line class="st6" x1="760.2" y1="-395.3" x2="-25.6" y2="1225.6"/>
	<line class="st7" x1="940.6" y1="-319.3" x2="-51.2" y2="1212.8"/>
	<line class="st8" x1="1120.9" y1="-243.3" x2="-76.8" y2="1200"/>
	<line class="st9" x1="1301.3" y1="-167.3" x2="-102.4" y2="1187.2"/>
	<line class="st10" x1="1481.7" y1="-91.3" x2="-128" y2="1174.4"/>
	<line class="st11" x1="1662" y1="-15.3" x2="-153.6" y2="1161.6"/>
	<line class="st12" x1="1842.4" y1="60.6" x2="-179.2" y2="1148.8"/>
	<line class="st13" x1="2022.7" y1="136.6" x2="-204.8" y2="1136"/>
	<line class="st14" x1="2203.1" y1="212.6" x2="-230.4" y2="1123.2"/>
	<line class="st15" x1="2383.5" y1="288.6" x2="-256" y2="1110.4"/>
</g>
</svg>
