<?xml version="1.0" encoding="utf-8"?>
<!-- Generator: Adobe Illustrator 17.0.0, SVG Export Plug-In . SVG Version: 6.00 Build 0)  -->
<!DOCTYPE svg PUBLIC "-//W3C//DTD SVG 1.1//EN" "http://www.w3.org/Graphics/SVG/1.1/DTD/svg11.dtd">
<svg version="1.1" id="Layer_1" xmlns="http://www.w3.org/2000/svg" xmlns:xlink="http://www.w3.org/1999/xlink" x="0px" y="0px"
	 width="87.928px" height="122.51px" viewBox="0 0 87.928 122.51" enable-background="new 0 0 87.928 122.51" xml:space="preserve">
<g>
	<defs>
		<rect id="SVGID_1_" y="0" width="87.928" height="122.51"/>
	</defs>
	<clipPath id="SVGID_2_">
		<use xlink:href="#SVGID_1_"  overflow="visible"/>
	</clipPath>
	<path clip-path="url(#SVGID_2_)" fill="#FFFFFF" d="M44.46,23.075c11.763,0,21.333,9.57,21.333,21.333
		c0,11.764-9.57,21.334-21.333,21.334s-21.333-9.57-21.333-21.334C23.127,32.645,32.697,23.075,44.46,23.075 M44.46,19.075
		c-13.991,0-25.333,11.342-25.333,25.333c0,13.992,11.342,25.334,25.333,25.334S69.793,58.4,69.793,44.408
		C69.793,30.417,58.451,19.075,44.46,19.075"/>
	<path clip-path="url(#SVGID_2_)" fill="none" stroke="#FFFFFF" stroke-width="4" stroke-miterlimit="10" d="M48.924,5.899
		L48.924,5.899c0.558,4.123,5.931,5.35,8.223,1.877c2.891-4.38,9.665-1.117,8.043,3.873c-1.286,3.958,3.023,7.393,6.595,5.259
		c4.504-2.691,9.192,3.187,5.566,6.98c-2.876,3.007-0.485,7.972,3.659,7.599c5.227-0.47,6.9,6.86,1.987,8.704
		c-3.896,1.462-3.896,6.972,0,8.434c4.913,1.844,3.24,9.174-1.987,8.704c-4.144-0.373-6.535,4.591-3.659,7.599
		c3.626,3.793-1.062,9.671-5.566,6.98c-3.572-2.135-7.881,1.301-6.595,5.259c1.622,4.99-5.152,8.252-8.043,3.873
		c-2.292-3.473-7.665-2.247-8.223,1.877c-0.704,5.2-8.223,5.2-8.927,0c-0.559-4.124-5.931-5.35-8.223-1.877
		c-2.891,4.379-9.665,1.117-8.044-3.873c1.286-3.958-3.022-7.394-6.594-5.259c-4.505,2.691-9.193-3.187-5.566-6.98
		c2.875-3.008,0.484-7.972-3.66-7.599c-5.226,0.47-6.899-6.86-1.986-8.704c3.895-1.462,3.895-6.972,0-8.434
		c-4.913-1.844-3.24-9.174,1.986-8.704c4.144,0.373,6.535-4.592,3.66-7.599c-3.627-3.793,1.061-9.671,5.566-6.98
		c3.572,2.134,7.88-1.301,6.594-5.259c-1.621-4.99,5.153-8.253,8.044-3.873c2.292,3.473,7.664,2.246,8.223-1.877
		C40.701,0.699,48.22,0.699,48.924,5.899z"/>
	
		<polyline clip-path="url(#SVGID_2_)" fill="none" stroke="#FFFFFF" stroke-width="4" stroke-linecap="round" stroke-linejoin="round" stroke-miterlimit="10" points="
		20.564,72.964 2,105.684 19.96,104.166 26.627,119.684 45.63,87.833 	"/>
	
		<polyline clip-path="url(#SVGID_2_)" fill="none" stroke="#FFFFFF" stroke-width="4" stroke-linecap="round" stroke-linejoin="round" stroke-miterlimit="10" points="
		66.593,73.79 85.157,106.51 67.197,104.992 60.53,120.51 43.695,92.293 	"/>
</g>
</svg>
