<?xml version="1.0" encoding="utf-8"?>
<!-- Generator: Adobe Illustrator 17.0.0, SVG Export Plug-In . SVG Version: 6.00 Build 0)  -->
<!DOCTYPE svg PUBLIC "-//W3C//DTD SVG 1.1//EN" "http://www.w3.org/Graphics/SVG/1.1/DTD/svg11.dtd">
<svg version="1.1" id="Layer_1" xmlns="http://www.w3.org/2000/svg" xmlns:xlink="http://www.w3.org/1999/xlink" x="0px" y="0px"
	 width="123.584px" height="111.446px" viewBox="0 0 123.584 111.446" enable-background="new 0 0 123.584 111.446"
	 xml:space="preserve">
<g>
	<defs>
		<rect id="SVGID_1_" width="123.584" height="111.446"/>
	</defs>
	<clipPath id="SVGID_2_">
		<use xlink:href="#SVGID_1_"  overflow="visible"/>
	</clipPath>
	<path clip-path="url(#SVGID_2_)" fill="#FFFFFF" d="M122.27,25.105c1.841-4.906,1.746-8.788-0.281-11.537
		c-4.25-5.738-15.151-3.616-23.547-0.827l-0.392,0.13l-0.32-0.262C87.801,4.478,75.281,0,62.477,0
		C31.75,0,6.753,24.997,6.753,55.723c0,6.75,1.258,13.448,3.738,19.906l0.152,0.396l-0.262,0.334
		C-1.672,91.764-1.068,99.238,1.562,102.795c1.813,2.439,4.959,3.676,9.347,3.676c0.937,0,1.927-0.054,2.943-0.163
		c0.517-0.053,0.979-0.306,1.306-0.71c0.324-0.403,0.472-0.907,0.417-1.421c-0.119-1.077-1.051-1.842-2.136-1.722
		c-4.444,0.449-7.472-0.235-8.764-1.979c-2.322-3.136,0.23-10.221,7.001-19.44l0.717-0.976l0.555,1.076
		c9.629,18.696,28.607,30.31,49.529,30.31c30.727,0,55.724-24.997,55.724-55.723c0-14.624-5.668-28.461-15.959-38.963l-0.88-0.899
		l1.209-0.347c8.526-2.446,14.314-2.319,16.299,0.361c1.496,2.026,0.701,5.397-0.229,7.869c-0.185,0.484-0.167,1.009,0.048,1.48
		c0.215,0.472,0.6,0.834,1.087,1.018C120.795,26.614,121.894,26.115,122.27,25.105 M97.139,17.276l0.338,0.311
		c0.993,0.912,1.874,1.779,2.694,2.652l1.19,1.264H87.023l3.247-1.436c2.275-1.006,4.441-1.892,6.438-2.631L97.139,17.276z
		 M70.799,4.609c7.958,1.292,15.315,4.335,21.864,9.043l1.105,0.794l-1.262,0.51c-3.305,1.335-6.795,2.921-10.369,4.714
		l-0.616,0.309l-0.36-0.589c-3.176-5.204-6.872-9.742-10.987-13.486l-1.867-1.7L70.799,4.609z M38.13,53.773l1.602-1.327
		c3.682-3.053,7.47-6.024,11.257-8.83c9.524-7.058,19.048-13.163,28.305-18.146l0.166-0.089h0.652l0.3,0.413
		c4.092,8.13,6.464,17.535,6.861,27.198l0.032,0.781H38.13z M87.304,57.652l-0.031,0.779c-0.385,9.658-2.747,19.063-6.829,27.199
		l-0.207,0.414H44.706l-0.207-0.414c-4.082-8.136-6.444-17.541-6.829-27.199l-0.031-0.779H87.304z M37.862,48.976l0.238-1.862
		c0.972-7.586,3.137-14.759,6.437-21.32l0.208-0.413h26.853l-2.337,1.394c-7.048,4.205-13.975,8.822-20.591,13.722
		c-2.962,2.196-6.021,4.581-9.352,7.294L37.862,48.976z M62.477,4.741l0.438,0.317c5.647,4.075,10.473,9.22,14.345,15.291
		l0.736,1.154H46.952l0.737-1.154c3.881-6.079,8.709-11.224,14.35-15.291L62.477,4.741z M24.783,20.238
		C32.556,11.977,42.986,6.426,54.15,4.609l2.493-0.406l-1.868,1.701c-4.596,4.183-8.631,9.304-11.992,15.219l-0.216,0.38H23.593
		L24.783,20.238z M10.768,52.984c0.524-9.937,3.876-19.453,9.692-27.518l0.351-0.485l0.552,0.234
		c0.258,0.11,0.519,0.166,0.776,0.166h18.4l-0.485,1.062c-3.647,7.983-5.732,16.605-6.199,25.624l-0.017,0.317l-0.756,0.652
		c-0.211,0.181-0.424,0.362-0.634,0.548l-0.213,0.189H10.726L10.768,52.984z M13.436,72.591l-0.402-1.276
		C11.762,67.293,11,62.961,10.768,58.44l-0.04-0.788H27.94l-1.377,1.295c-4.624,4.355-8.745,8.606-12.248,12.635L13.436,72.591z
		 M22.139,86.044c-0.255,0-0.519,0.057-0.787,0.171L20.8,86.45l-0.35-0.486c-2.034-2.822-3.773-5.817-5.169-8.902l-0.193-0.427
		l0.298-0.36c4.712-5.704,10.5-11.65,17.202-17.673l1.176-1.057l0.074,1.58c0.429,9.074,2.509,17.774,6.184,25.858l0.482,1.061
		H22.139z M54.089,106.827c-11.137-1.821-21.553-7.376-29.328-15.642l-1.189-1.263H42.53l0.216,0.379
		c3.361,5.926,7.388,11.05,11.97,15.232l1.865,1.701L54.089,106.827z M62.477,106.754l-0.438-0.317
		c-5.663-4.083-10.503-9.252-14.388-15.363l-0.733-1.152h31.106l-0.732,1.152c-3.875,6.104-8.711,11.273-14.376,15.363
		L62.477,106.754z M100.193,91.185C92.418,99.451,82,105.006,70.86,106.827l-2.491,0.407l1.864-1.701
		c4.582-4.182,8.609-9.306,11.971-15.232l0.215-0.379h18.963L100.193,91.185z M114.186,58.441
		c-0.519,9.945-3.868,19.463-9.687,27.523l-0.348,0.483l-0.549-0.23c-0.279-0.117-0.537-0.173-0.787-0.173H84.446l0.481-1.06
		c3.788-8.345,5.883-17.297,6.226-26.61l0.026-0.722h23.048L114.186,58.441z M102.81,25.381c0.257,0,0.524-0.057,0.772-0.164
		l0.554-0.239l0.353,0.488c5.821,8.065,9.173,17.581,9.692,27.518l0.041,0.789H91.175l-0.027-0.722
		c-0.355-9.331-2.46-18.284-6.259-26.608l-0.484-1.062H102.81z"/>
</g>
</svg>
