<?xml version="1.0" encoding="utf-8"?>
<!-- Generator: Adobe Illustrator 17.0.0, SVG Export Plug-In . SVG Version: 6.00 Build 0)  -->
<!DOCTYPE svg PUBLIC "-//W3C//DTD SVG 1.1//EN" "http://www.w3.org/Graphics/SVG/1.1/DTD/svg11.dtd">
<svg version="1.1" id="Layer_1" xmlns="http://www.w3.org/2000/svg" xmlns:xlink="http://www.w3.org/1999/xlink" x="0px" y="0px"
	 width="121.114px" height="89.979px" viewBox="0 0 121.114 89.979" enable-background="new 0 0 121.114 89.979"
	 xml:space="preserve">
<g>
	<defs>
		<rect id="SVGID_1_" y="0" width="121.114" height="89.979"/>
	</defs>
	<clipPath id="SVGID_2_">
		<use xlink:href="#SVGID_1_"  overflow="visible"/>
	</clipPath>
	<path clip-path="url(#SVGID_2_)" fill="#FFFFFF" d="M120.689,73.919v-0.668c-0.134-2.004-0.534-6.815-1.336-8.953
		c-1.069-2.94-2.405-4.276-4.009-5.345c-0.802-0.534-3.608-1.603-8.018-3.207c-3.741-1.336-8.284-3.073-9.888-4.009
		c-1.203-0.668-2.272-4.142-2.405-5.345c0-0.133,0.267-0.401,0.935-1.069c1.737-1.871,4.009-5.478,4.944-8.953
		c1.203-4.677,2.272-14.298-2.138-20.177c-2.539-3.341-6.414-5.212-11.625-5.345h-0.401h-0.134
		c-5.211,0.133-9.086,2.004-11.625,5.345c-4.41,5.879-3.474,15.5-2.138,20.177c0.935,3.475,3.207,7.082,4.944,8.953
		c0.134,0.268,0.802,0.802,0.935,1.069c0.401,1.069-1.202,4.677-2.405,5.345c-1.603,0.936-5.879,2.539-9.755,4.009h-0.133
		c-0.936,0.401-1.737,0.668-2.539,0.936c-2.539-0.936-4.677-1.871-5.746-2.539c-1.871-1.069-3.341-6.014-3.341-7.483
		c0-0.134,0.134-0.401,1.203-1.604c2.272-2.405,5.078-7.082,6.28-11.625c1.604-6.147,2.94-18.575-2.806-26.191
		c-3.207-4.41-8.285-6.682-14.966-6.815h-0.535h-0.133c-6.681,0.267-11.759,2.539-14.966,6.948
		c-5.746,7.617-4.41,20.044-2.806,26.191c1.202,4.543,4.142,9.087,6.28,11.492c0.267,0.401,1.069,1.203,1.203,1.604
		c0.534,1.603-1.604,6.414-3.341,7.483c-2.138,1.202-7.884,3.34-13.095,5.345c-5.613,2.138-9.354,3.474-10.29,4.142
		c-2.004,1.336-3.741,3.074-5.078,6.815c-0.668,2.806-1.069,9.22-1.336,11.759v0.668l0.535,0.535
		c1.47,1.47,9.086,6.147,43.428,6.147c34.075,0,41.825-4.811,43.429-6.281l0.534-0.534v-0.668c0-0.802-0.133-1.738-0.267-2.94
		c24.988-0.134,30.868-3.742,32.071-4.811L120.689,73.919z M44.388,86.48c-30.199,0-38.751-3.741-40.889-4.944
		c0.267-3.741,0.801-8.151,1.47-10.156c1.069-2.939,2.271-4.142,3.875-5.345c0.801-0.534,6.147-2.539,9.754-3.875
		c5.479-2.004,11.225-4.142,13.497-5.478c2.806-1.604,5.879-7.884,4.677-11.091c-0.268-0.936-0.936-1.738-1.871-2.673
		c-2.005-2.138-4.543-6.28-5.612-10.289c-1.47-5.613-2.673-16.837,2.271-23.652c2.673-3.608,6.815-5.479,12.561-5.612h0.134h0.401
		c5.746,0.133,9.888,2.138,12.561,5.612c4.944,6.681,3.741,18.039,2.271,23.652c-1.069,4.009-3.741,8.151-5.612,10.289
		c-1.47,1.604-2.005,2.405-2.138,3.608c0,2.138,1.603,8.418,4.81,10.289c0.669,0.401,1.738,0.936,3.074,1.47
		c1.202,0.535,2.539,1.069,4.009,1.604c2.004,0.801,4.276,1.603,6.414,2.405c3.608,1.336,8.953,3.341,9.754,3.875
		c1.604,1.069,2.807,2.272,3.876,5.345c0.4,1.069,0.668,2.806,0.935,4.811c0.134,0.935,0.267,2.004,0.401,2.939
		c0.133,0.802,0.133,1.604,0.267,2.406C83.14,82.739,74.588,86.48,44.388,86.48 M87.817,76.191c-0.267-2.138-0.668-4.41-1.203-5.746
		c-1.336-3.742-2.939-5.479-5.077-6.815c-1.069-0.668-4.811-2.138-10.423-4.142c-1.069-0.401-2.138-0.802-3.074-1.203
		c4.009-1.47,8.018-3.073,9.755-4.009c2.272-1.336,4.677-6.147,3.742-8.819c-0.268-0.668-0.802-1.336-1.47-2.138
		c-1.47-1.604-3.341-4.677-4.143-7.617c-1.069-4.142-2.004-12.694,1.737-17.639c2.005-2.672,5.078-4.008,9.354-4.142h0.267
		c4.277,0.134,7.35,1.47,9.354,4.142c3.742,4.945,2.807,13.497,1.737,17.639c-0.801,2.94-2.806,6.013-4.276,7.617
		c-1.069,1.203-1.603,2.004-1.603,2.94c0,1.737,1.203,6.547,3.875,8.017c1.737,1.069,6.147,2.673,10.289,4.143
		c2.539,0.935,6.815,2.539,7.35,2.939c1.202,0.802,2.004,1.738,2.806,3.876c0.401,1.202,0.802,4.008,1.069,7.349
		C116.012,73.518,109.331,76.057,87.817,76.191"/>
</g>
</svg>
