<svg id="Capa_1" data-name="Capa 1" xmlns="http://www.w3.org/2000/svg" viewBox="0 0 512 512"><defs><style>.cls-1{fill:#fff;}</style></defs><title>Artboard 1</title><path class="cls-1" d="M0,256C0,397.15,114.85,512,256,512S512,397.15,512,256,397.15,0,256,0,0,114.85,0,256Zm486.42,0c0,127.06-103.36,230.42-230.42,230.42S25.58,383.06,25.58,256,128.94,25.58,256,25.58,486.42,128.94,486.42,256Z"/><path class="cls-1" d="M175,207.66A12.81,12.81,0,0,0,193,225.83l50.11-50.11V367.19a12.84,12.84,0,0,0,25.68,0V175.71L319,225.83A12.77,12.77,0,0,0,337,207.77l-71.93-71.93a12.73,12.73,0,0,0-18.06,0Z"/></svg>