<svg xmlns="http://www.w3.org/2000/svg" viewBox="0 0 491.109 123.159"><title>Icons</title><path d="M26.792,107.073c5.024-.28,10.094-3.68,10.094-10.642,0-7.666-4.3-10.793-14.835-10.793H0v36.579H6.648V107.585H18.626l.092.125,10.7,14.507H37.6L26.215,107.107ZM6.648,102.165V91.058H20.977c6.009,0,9.264.881,9.264,5.528,0,4.691-3.255,5.579-9.264,5.579Zm73.62,17.241a2.816,2.816,0,0,1-2.814,2.811H46.912V85.638H76.841a2.812,2.812,0,1,1,0,5.625H53.56v9.264H71.074a2.812,2.812,0,0,1,0,5.625H53.56v10.441H77.454A2.817,2.817,0,0,1,80.268,119.406Zm46.56-29.2-15.673,32.007h-7.186L88.511,90.2a3.182,3.182,0,1,1,5.745-2.736l13.026,27.67.277.586L121.113,87.44a3.194,3.194,0,0,1,2.864-1.8,3.174,3.174,0,0,1,2.85,4.573ZM145.1,85.638l-18.011,36.579h7.029l3.941-8.545h21.833l.085.181,3.8,8.364h6.986L153,85.638Zm-4.31,22.41,8.262-17.613,8.262,17.613Zm68.379-19.6a2.816,2.816,0,0,1-2.814,2.811H192.54v30.955h-6.648V91.263H172.075a2.812,2.812,0,0,1,0-5.625h34.28A2.817,2.817,0,0,1,209.168,88.452Zm46.582.512v17.6c0,11-6.539,16.575-19.44,16.575s-19.442-5.576-19.442-16.575v-17.6a3.324,3.324,0,1,1,6.648,0v17.089c0,5.338,1.455,11.462,12.794,11.462S249.1,111.39,249.1,106.052V88.963a3.324,3.324,0,1,1,6.648,0Zm38.056,18.11c5.024-.28,10.094-3.68,10.094-10.642,0-7.666-4.3-10.793-14.835-10.793h-22.05v36.579h6.648V107.585H285.64l.092.125,10.7,14.507h8.175l-11.382-15.111Zm-20.144-4.908V91.058H287.99c6.009,0,9.264.881,9.264,5.528,0,4.691-3.255,5.579-9.264,5.579Zm73.62,17.241a2.816,2.816,0,0,1-2.814,2.811H313.926V85.638h29.929a2.812,2.812,0,1,1,0,5.625H320.574v9.264h16.09a2.812,2.812,0,0,1,0,5.625h-16.09v10.441h23.894A2.817,2.817,0,0,1,347.281,119.406Z" fill="#231f20"/><path d="M138.274,67.284a3.141,3.141,0,0,1-3.349,2.918l-.208-.014a3.141,3.141,0,0,1,.431-6.267l.208.014A3.141,3.141,0,0,1,138.274,67.284ZM158.387,45.34a3.141,3.141,0,1,0-5.424,3.168l3.227,5.028a3.141,3.141,0,1,0,5.424-3.168ZM183.2,30.589a3.141,3.141,0,0,0-6.088,1.546l3.364,11.216a3.141,3.141,0,1,0,6.088-1.546Zm23.558-14.983h0a3.141,3.141,0,0,0-2.954,3.317l1.767,17.857a3.141,3.141,0,1,0,6.271-.363L210.076,18.56A3.141,3.141,0,0,0,206.759,15.606Zm28.732-8.82a3.141,3.141,0,0,0-3.406,2.851l-1.178,23.936a3.141,3.141,0,1,0,6.257.555l1.178-23.936A3.141,3.141,0,0,0,235.49,6.786Zm30.406-5.2a3.141,3.141,0,0,0-3.755,2.372L256.67,33.479a3.141,3.141,0,0,0,6.127,1.383l5.471-29.525A3.141,3.141,0,0,0,265.9,1.582ZM297.034.188a3.141,3.141,0,0,0-4.022,1.885L281.867,36.617a3.141,3.141,0,0,0,5.907,2.136L298.919,4.21A3.141,3.141,0,0,0,297.034.188Zm31.6,3.029A3.141,3.141,0,0,0,324.416,4.6l-17.7,38.353a3.141,3.141,0,0,0,5.6,2.837l17.7-38.353A3.141,3.141,0,0,0,328.636,3.217ZM360.2,10.5a3.141,3.141,0,0,0-4.348.905L331.042,52.576a3.141,3.141,0,0,0,5.254,3.443L361.1,14.846A3.141,3.141,0,0,0,360.2,10.5Zm31.077,11.578a3.141,3.141,0,0,0-4.422.421L354.031,65.189a3.141,3.141,0,0,0,4.842,4L391.7,26.5A3.141,3.141,0,0,0,391.277,22.075Z" fill="#231f20"/><path d="M366.408,85.607H387.88c7.409,0,14.164,2.116,14.164,10.484,0,8.418-6.755,10.534-14.164,10.534H370.843v15.626h-4.435Zm4.435,17.087h15.878c7.359,0,11.089-1.562,11.089-6.553,0-5.039-3.729-6.6-11.089-6.6H370.843Z" fill="#231f20"/><path d="M408.344,85.607h21.169c5.848,0,14.416,1.26,14.416,10.233,0,7.661-7.106,9.878-11.543,10.08l12.1,16.332h-5.493l-11.8-16.231H412.779v16.231h-4.435Zm4.435,16.483h15.727c6.4,0,11.19-.908,11.19-6.3,0-5.342-4.789-6.25-11.19-6.25H412.779Z" fill="#231f20"/><path d="M469.636,84.7c12.45,0,21.472,7.258,21.472,19.457,0,13-10.889,19-21.472,19s-21.474-6-21.474-19C448.163,91.958,457.185,84.7,469.636,84.7Zm0,34.529c8.921,0,16.935-4.738,16.935-15.878,0-8.166-6.3-14.921-16.935-14.921S452.7,95.184,452.7,103.35C452.7,114.49,460.613,119.228,469.636,119.228Z" fill="#231f20"/></svg>