<?xml version="1.0" encoding="utf-8"?>
<!-- Generator: Adobe Illustrator 20.1.0, SVG Export Plug-In . SVG Version: 6.00 Build 0)  -->
<svg version="1.1" id="Layer_1" xmlns="http://www.w3.org/2000/svg" xmlns:xlink="http://www.w3.org/1999/xlink" x="0px" y="0px"
	 viewBox="0 0 463 154.5" style="enable-background:new 0 0 463 154.5;" xml:space="preserve">
<style type="text/css">
	.st0{fill:#FFFFFF;}
	.st1{fill:#F1B830;}
</style>
<g>
	<g>
		<g>
			<g>
				<path d="M231.1,74.8c-12.3,0-21.2-2.2-26.5-6.6c-4.5-3.7-5-8-5-9.6V3.4h28l3.8,8.7l3.8-8.7h28v55.2c0,1.6-0.5,5.9-5,9.6
					c-5.3,4.4-14.2,6.6-26.5,6.6H231.1z"/>
				<path class="st0" d="M262.9,3.9v54.7c0,3.6-2.5,15.8-31,15.8c-0.1,0-0.3,0-0.4,0c0,0,0,0,0,0h-0.1c0,0,0,0,0,0
					c-0.1,0-0.3,0-0.4,0c-28.5,0-31-12.1-31-15.8V3.9h27.2l4.2,9.4l4.2-9.4H262.9 M263.9,2.9h-1h-27.2H235l-0.3,0.6l-3.3,7.3
					l-3.3-7.3L228,2.9h-0.7h-27.2h-1v1v54.7c0,1.7,0.5,6.1,5.2,10c5.4,4.5,14.4,6.7,26.8,6.7l0.4,0l0.4,0c12.4,0,21.4-2.3,26.8-6.7
					c4.7-3.9,5.2-8.3,5.2-10V3.9V2.9L263.9,2.9z"/>
			</g>
			<path class="st1" d="M231.5,57.9c9.4,0,9.2-3.3,9.2-4.1v-5.2c0-1.1-0.7-1.9-2-2.6v-3.7l0,0h16.1v3.6c-1.3,0.7-2,1.5-2,2.6v4.7
				c-0.1,3.4,1.5,12-21.2,12c-22.8,0-21.2-8.6-21.2-12v-4.7c0-1.1-0.7-1.9-2-2.6v-3.6h16.1l0,0v3.7c-1.3,0.7-2,1.5-2,2.6v5.2
				C222.3,54.6,222.1,57.9,231.5,57.9L231.5,57.9z"/>
			<path class="st1" d="M231.5,25.8l7.8-14h15.5v3.6c-1.3,0.7-2,1.5-2,2.6v11.1c0,1.1,0.7,1.9,2,2.6v3.6h-14.7v-3.7
				c1.3-0.7,2-1.5,2-2.6v-8.5l-8.8,14.7h-3.6l-8.8-14.7v8.5c0,1.1,0.7,1.9,2,2.6v3.7h-14.7v-3.6c1.3-0.7,2-1.5,2-2.6V18.1
				c0-1.1-0.7-1.9-2-2.6v-3.6h15.5L231.5,25.8"/>
		</g>
	</g>
	<g>
		<path d="M15.1,123.5c0,6.3,2.6,11.8,10.5,11.8c5.5,0,10.2-3.1,10.2-14.2v-9.3c0-6.5-1.4-6.5-6.2-6.5c-0.4,0-0.4-0.3-0.4-0.7
			c0-0.6,0.1-0.7,0.4-0.7c0.8,0,3.9,0.2,6.9,0.2c1.5,0,5.4-0.2,6.1-0.2c0.5,0,0.7,0.1,0.7,0.8c0,0.2,0,0.6-0.4,0.6
			c-4.5,0-5.4,0-5.4,5.5v11.1c0,12.7-8.1,16.1-13.5,16.1c-10.5,0-13.5-7-13.5-12.2V115c0-3.3,0-4.5-0.1-6.6c0-2.8-0.8-3.1-4.9-3.1
			c-0.5,0-0.5-0.4-0.5-0.8c0-0.3,0.1-0.6,0.4-0.6c0.4,0,4.5,0.2,7.4,0.2c3,0,7.1-0.2,7.5-0.2c0.3,0,0.4,0.3,0.4,0.6
			c0,0.4,0,0.8-0.5,0.8c-4.1,0-4.9,0.4-4.9,3.1c0,2.2-0.1,3.3-0.1,6.6V123.5z"/>
		<path d="M51.3,132.9c0,2.7,0.1,3.2,2.2,3.2c1.3,0,1.4,0,1.4,0.6c0,0.3,0,0.6-0.5,0.6c-0.2,0-0.8-0.1-4.1-0.1
			c-4.4,0-5.6,0.1-6.3,0.1c-0.4,0-0.4-0.3-0.4-0.5c0-0.6,0-0.7,1.8-0.7c1.2,0,1.6-0.5,1.9-1.1c0.2-0.4,0.3-3.8,0.3-6.8v-6.4
			c0-1.6-0.4-2.6-2.8-2.8c-0.4,0-0.4-0.2-0.4-0.6c0-0.4,0.1-0.6,0.4-0.7c5.4-1.1,6-2.3,6.6-2.3c0.1,0,0.1,0.1,0.1,0.5
			c0,0.3-0.1,1.3-0.1,3.4c2.4-1.6,4.8-3.2,7.4-3.2c1.6,0,6.2,0.3,6.2,7v11.3c0,0.8,0.1,1.7,3.1,1.7c0.5,0,0.5,0.3,0.5,0.6
			c0,0.3,0,0.6-0.7,0.6c-1.4,0-2.3-0.1-4.7-0.1c-3.8,0-4.6,0.1-4.9,0.1c-0.3,0-0.3-0.3-0.3-0.6c0-0.2,0.1-0.7,0.7-0.7
			c2.3,0,2.7-0.2,2.7-1.7V126c0-4.4-0.4-7.3-5.3-7.3c-1.8,0-4.3,1.6-4.5,2.2V132.9z"/>
		<path d="M77.7,132.9c0,2.7,0.1,3.2,2.2,3.2c1,0,1.1,0,1.1,0.6c0,0.3,0,0.6-0.5,0.6c-0.2,0-0.8-0.1-3.9-0.1c-4.4,0-5.6,0.1-6.3,0.1
			c-0.4,0-0.4-0.3-0.4-0.5c0-0.6,0-0.7,1.8-0.7c1.2,0,1.6-0.5,1.9-1.1c0.2-0.4,0.3-3.8,0.3-6.8v-6.4c0-1.6-0.4-2.6-2.8-2.8
			c-0.4,0-0.4-0.2-0.4-0.6c0-0.4,0.1-0.6,0.4-0.7c5.4-1.1,6-2.3,6.6-2.3c0.2,0,0.3,0.2,0.3,0.5c0,0.2-0.2,0.7-0.2,6.8V132.9z
			 M73.3,106.5c0-1.3,1-2.5,2.4-2.5c1.4,0,2.4,1.2,2.4,2.5c0,1.3-1,2.5-2.4,2.5C74.3,109,73.3,107.8,73.3,106.5z"/>
		<path d="M99.2,119.6c0-1.4-2.4-1.4-3.1-1.4c-0.3,0-0.4-0.3-0.4-0.7c0-0.2,0.2-0.6,0.6-0.6c1.3,0,2.7,0.1,4,0.1
			c1.4,0,2.8-0.1,4.1-0.1c0.3,0,0.4,0.3,0.4,0.6c0,0.3,0,0.5-0.5,0.5c-2.7,0.4-2.9,0.6-4.4,4.3c-1.6,4-4.5,10-5.3,11.9
			c-1.3,3.1-1.7,3.7-2.1,3.7c-0.5,0-0.8-1-1.8-3c-1.6-3.5-5.5-15-6.2-15.9c-0.5-0.7-0.9-0.8-1.6-0.8c-1.3,0-1.5-0.1-1.5-0.8
			c0-0.3,0.2-0.5,0.5-0.5c1.5,0,3,0.1,4.5,0.1c0.9,0,4.6-0.1,5.6-0.1c0.3,0,0.4,0.4,0.4,0.7c0,0.2-0.2,0.6-0.5,0.6
			c-1.4,0-2.7,0.1-2.7,1.1c0,1.5,3.8,11,4.8,13.1C98.5,122.6,99.2,120.8,99.2,119.6z"/>
		<path d="M108.4,124.6c-0.1,0.9-0.2,1.8-0.2,2.7c0,3.1,2.6,7.8,7.7,7.8c2.2,0,4-0.7,5.5-2.8c0.3-0.4,0.5-0.8,0.7-0.8
			c0.3,0,0.8,0.4,0.8,0.6c0,0.1-1.9,6-8.1,6c-6.7,0-10.2-4.1-10.2-10.7c0-6.7,4.6-11.3,9.4-11.3c7.8,0,8.4,6.7,8.4,8.1
			c0,0.5-0.2,0.5-0.6,0.5H108.4z M116.5,123.2c0.9,0,1.6-0.3,1.6-1.6c0-3.7-2.5-4.5-4.1-4.5c-3.4,0-4.8,2.8-5.3,6H116.5z"/>
		<path d="M128.9,121.9c0-1.6-0.4-2.6-2.8-2.8c-0.4,0-0.4-0.2-0.4-0.6c0-0.4,0.1-0.6,0.4-0.7c5.4-1.1,6-2.3,6.6-2.3
			c0.1,0,0.2,0.3,0.2,0.5c0,0.6-0.2,1.7-0.2,4.3c1.5-1.7,4.1-4.1,6.6-4.1c1.6,0,3,0.9,3,2.6c0,1.2-0.9,2.3-2.3,2.3
			c-1.9,0-2.2-1.8-3.6-1.8c-0.8,0-2.1,0.7-3.2,2c-0.3,0.4-0.3,0.9-0.3,1.4v10.7c0,1.7,0,2.8,2.3,2.8c1.7,0,1.9,0,1.9,0.6
			c0,0.6-0.2,0.7-0.7,0.7c-1.7,0-3.2-0.1-5.4-0.1c-3.8,0-4.6,0.1-5.4,0.1c-0.3,0-0.4-0.3-0.4-0.6c0-0.5,0.6-0.6,1.5-0.6
			c2,0,2.4-0.4,2.4-2.4V121.9z"/>
		<path d="M158.2,131.6c0,2.3-1.2,6.4-7.7,6.4c-0.8,0-3.6-0.4-5.4-0.4c-0.1,0-0.2-0.1-0.2-0.2c0-0.5-1.1-4.6-1.1-5.1
			c0-0.3,0.7-0.3,0.8-0.3c1.1,0,1.4,4.7,5.9,4.7c3.3,0,4.3-2.5,4.3-4.2c0-4.9-10.5-3.3-10.5-10c0-3.8,3.2-6.4,7.1-6.4
			c2.2,0,4.9,0.4,5.1,0.4c0.6,0.1,0.7,1,0.7,1.3c0.1,1.9,0.5,3.1,0.5,3.8c0,0.3-0.3,0.4-0.5,0.4c-0.4,0-0.7,0-0.9-0.7
			c-0.3-0.8-1.5-4-4.9-4c-2.2,0-3.8,1.3-3.8,3.5c0,1.6,1.2,2.6,2.2,3.1C154.8,126.4,158.2,126.3,158.2,131.6z"/>
		<path d="M168.3,132.9c0,2.7,0.1,3.2,2.2,3.2c1,0,1.1,0,1.1,0.6c0,0.3,0,0.6-0.5,0.6c-0.2,0-0.8-0.1-3.9-0.1
			c-4.4,0-5.6,0.1-6.3,0.1c-0.4,0-0.4-0.3-0.4-0.5c0-0.6,0-0.7,1.8-0.7c1.2,0,1.6-0.5,1.9-1.1c0.2-0.4,0.3-3.8,0.3-6.8v-6.4
			c0-1.6-0.4-2.6-2.8-2.8c-0.4,0-0.4-0.2-0.4-0.6c0-0.4,0.1-0.6,0.4-0.7c5.4-1.1,6-2.3,6.6-2.3c0.2,0,0.3,0.2,0.3,0.5
			c0,0.2-0.2,0.7-0.2,6.8V132.9z M164,106.5c0-1.3,1-2.5,2.4-2.5c1.4,0,2.4,1.2,2.4,2.5c0,1.3-1,2.5-2.4,2.5
			C165,109,164,107.8,164,106.5z"/>
		<path d="M179.7,129c0,5,0.4,6.8,4.1,6.8c1.6,0,3-1.1,3.2-1.1c0.2,0,0.5,0.5,0.5,0.8c0,0.3-2,2.5-6.2,2.5c-5.4,0-5.4-4.6-5.4-5.8
			v-12.3c0-0.4-0.1-0.6-0.5-0.6h-2.3c-0.1,0-0.3-0.1-0.3-0.4c0-0.2,0-0.5,0.3-0.7c4.4-3.3,5.3-5.8,6.2-5.8c0.3,0,0.6,0.2,0.6,0.6
			c0,0.8-0.1,1.6-0.1,4.3h7.2c0.3,0,0.5,0.3,0.5,1c0,0.6-0.3,1.2-1.3,1.2c-0.3,0-2.5-0.2-6.4-0.2V129z"/>
		<path d="M208.1,119.8c0-1.6-2.2-1.6-3.6-1.6c-0.4,0-0.5-0.2-0.5-0.6c0-0.3,0.2-0.6,0.4-0.6c1.5,0,3.1,0.1,4.6,0.1
			c1.5,0,2.9-0.1,4.4-0.1c0.3,0,0.3,0.4,0.3,0.6c0,0.4-0.1,0.6-0.8,0.6c-1.6,0.1-2.3,0.4-3,2.1c-1.7,3.9-8.2,17.5-9.2,20.1
			c-3.6,9.1-5.2,9.7-6.7,9.7c-1.5,0-2.6-1.3-2.6-2.8c0-1.4,1.4-2.5,2.7-2.5c1.2,0,1.8,0.8,2.3,0.8c0.8,0,3.1-4.5,3.1-6.7
			c0-1.2-1.1-3.9-1.6-5.3c-3-7.6-3.9-11.7-4.8-14.3c-0.4-1.1-2.8-1.1-3.4-1.1c-0.3,0-0.4-0.3-0.4-0.7c0-0.4,0.2-0.6,0.5-0.6
			c0.6,0,3.5,0.1,5.2,0.1c1.6,0,3.2-0.1,4.6-0.1c0.5,0,0.6,0.3,0.6,0.6c0,0.2-0.1,0.6-0.5,0.6c-0.3,0-2.3,0-2.3,1
			c0,2.3,1.6,6.9,4.6,14.7C204.2,129.5,208.1,121.2,208.1,119.8z"/>
		<path d="M237.5,138c-6.4,0-10.9-4.6-10.9-10.9c0-6.2,4.6-10.9,10.9-10.9c6.3,0,10.9,4.6,10.9,10.9C248.4,133.6,244,138,237.5,138z
			 M237.5,117.4c-4.9,0-6.4,5.1-6.4,9.7c0,4,0.9,9.7,6.4,9.7c5.5,0,6.5-5.7,6.5-9.7C243.9,122.5,242.4,117.4,237.5,117.4z"/>
		<path d="M259.1,133.4c0,1.7,0,2.8,2.3,2.8c1.7,0,1.9,0,1.9,0.6c0,0.6-0.2,0.7-0.7,0.7c-1.7,0-3.2-0.1-5.4-0.1
			c-3.8,0-4.6,0.1-5,0.1c-0.3,0-0.4-0.3-0.4-0.6c0-0.5,0.1-0.6,1-0.6c2,0,2.4-0.4,2.4-2.4v-13.1c0-0.6,0-1.5-0.9-1.5h-2.6
			c-0.3,0-0.6,0-0.6-0.6c0-0.4,0.3-0.6,1.5-0.8c1.8-0.4,2.3-0.5,2.4-2.6c0.5-7.1,2.6-11.1,8.1-12.5c0.8-0.2,2-0.4,2.9-0.4
			c1.2,0,3,0.5,3,2c0,1.4-0.8,2.3-2.2,2.3c-0.4,0-1.5-0.1-2.6-1.1c-0.8-0.7-1.6-1.1-2.1-1.1c-2.7,0-3.1,3.9-3.1,6.8v6.1h5.8
			c0.3,0,0.5,0.3,0.5,1c0,0.6-0.3,1.2-1.3,1.2c-0.3,0-3.9-0.2-5-0.2V133.4z"/>
		<path d="M317.4,104.3c0.1-0.4,0.3-0.5,0.6-0.5c0.2,0,3.7,0.2,4.7,0.2c0.8,0,4.8-0.2,5.1-0.2c0.5,0,0.5,0.4,0.5,0.8
			c0,0.4-0.2,0.6-0.6,0.6c-4.2,0-4.7,0.3-4.7,2.5c0,3.1,0.5,12.9,1,26.1c0,1.6,1.4,2.2,2.6,2.2c2.6,0,2.7,0.3,2.7,0.6
			c0,0.7-0.2,0.8-0.5,0.8c-0.4,0-0.9-0.1-7.5-0.1c-6.1,0-6.4,0.1-6.8,0.1c-0.5,0-0.5-0.3-0.5-0.7c0-0.3,0.1-0.7,2.3-0.7
			c3.1,0,3.1-0.8,3.1-2.6c0-2.8-0.7-18-1.1-26.8h-0.1c-3.4,8.8-7.8,18.9-10.8,26.4c-1.8,4.3-1.8,4.8-2.4,4.8c-0.6,0-0.7-0.4-1.7-3.7
			c-1-3.4-8.7-24.1-8.9-24.1c-0.8,3.4-3.9,19-3.9,23.7c0,1.5,0.8,2.2,2.3,2.2c1.2,0,2.5,0.1,2.5,0.4c0,0.9,0,1-0.5,1
			c-0.4,0-0.8-0.1-5.7-0.1c-4.3,0-4.6,0.1-4.9,0.1c-0.4,0-0.5,0-0.5-0.8c0-0.5,0.2-0.6,2.5-0.6c1.6,0,2-0.6,2.5-3.3
			c1.3-6.8,2.4-13.6,3.9-20.3c0.5-2.1,0.6-3.4,0.6-4.4c0-0.3-0.7-2-1.2-2.3c-0.4-0.2-2.6-0.4-4-0.4c-0.6,0-0.6-0.4-0.6-0.7
			c0-0.4,0.1-0.7,0.5-0.7c0.9,0,4.9,0.2,5.4,0.2c1.2,0,3.2-0.2,3.8-0.2c0.5,0,0.7,0.5,1.1,2.2c1,3.5,7.8,22.5,8.6,24.3
			C310.5,122,314,113.4,317.4,104.3z"/>
		<path d="M338.3,132.9c0,2.7,0.1,3.2,2.2,3.2c1,0,1.1,0,1.1,0.6c0,0.3,0,0.6-0.5,0.6c-0.2,0-0.8-0.1-3.9-0.1
			c-4.4,0-5.6,0.1-6.3,0.1c-0.4,0-0.4-0.3-0.4-0.5c0-0.6,0-0.7,1.8-0.7c1.2,0,1.6-0.5,1.9-1.1c0.2-0.4,0.3-3.8,0.3-6.8v-6.4
			c0-1.6-0.4-2.6-2.8-2.8c-0.4,0-0.4-0.2-0.4-0.6c0-0.4,0.1-0.6,0.4-0.7c5.4-1.1,6-2.3,6.6-2.3c0.2,0,0.3,0.2,0.3,0.5
			c0,0.2-0.2,0.7-0.2,6.8V132.9z M333.9,106.5c0-1.3,1-2.5,2.4-2.5c1.4,0,2.4,1.2,2.4,2.5c0,1.3-1,2.5-2.4,2.5
			C334.9,109,333.9,107.8,333.9,106.5z"/>
		<path d="M358.6,131.6c0,2.3-1.2,6.4-7.7,6.4c-0.8,0-3.6-0.4-5.4-0.4c-0.1,0-0.2-0.1-0.2-0.2c0-0.5-1.1-4.6-1.1-5.1
			c0-0.3,0.7-0.3,0.8-0.3c1.1,0,1.4,4.7,5.9,4.7c3.3,0,4.3-2.5,4.3-4.2c0-4.9-10.5-3.3-10.5-10c0-3.8,3.2-6.4,7.1-6.4
			c2.2,0,4.9,0.4,5.1,0.4c0.6,0.1,0.7,1,0.7,1.3c0.1,1.9,0.5,3.1,0.5,3.8c0,0.3-0.3,0.4-0.5,0.4c-0.4,0-0.7,0-0.9-0.7
			c-0.3-0.8-1.5-4-4.9-4c-2.2,0-3.8,1.3-3.8,3.5c0,1.6,1.2,2.6,2.2,3.1C355.2,126.4,358.6,126.3,358.6,131.6z"/>
		<path d="M375.9,131.6c0,2.3-1.2,6.4-7.7,6.4c-0.8,0-3.6-0.4-5.4-0.4c-0.1,0-0.2-0.1-0.2-0.2c0-0.5-1.1-4.6-1.1-5.1
			c0-0.3,0.7-0.3,0.8-0.3c1.1,0,1.4,4.7,5.9,4.7c3.3,0,4.3-2.5,4.3-4.2c0-4.9-10.5-3.3-10.5-10c0-3.8,3.2-6.4,7.1-6.4
			c2.2,0,4.9,0.4,5.1,0.4c0.6,0.1,0.7,1,0.7,1.3c0.1,1.9,0.5,3.1,0.5,3.8c0,0.3-0.3,0.4-0.5,0.4c-0.4,0-0.7,0-0.9-0.7
			c-0.3-0.8-1.5-4-4.9-4c-2.2,0-3.8,1.3-3.8,3.5c0,1.6,1.2,2.6,2.2,3.1C372.6,126.4,375.9,126.3,375.9,131.6z"/>
		<path d="M390.3,138c-6.4,0-10.9-4.6-10.9-10.9c0-6.2,4.6-10.9,10.9-10.9c6.3,0,10.9,4.6,10.9,10.9
			C401.2,133.6,396.8,138,390.3,138z M390.3,117.4c-4.9,0-6.4,5.1-6.4,9.7c0,4,0.9,9.7,6.4,9.7c5.5,0,6.5-5.7,6.5-9.7
			C396.7,122.5,395.2,117.4,390.3,117.4z"/>
		<path d="M407.1,122.7c0-4.1-0.5-4.4-2.9-4.4c-0.4,0-1,0-1-0.5c0-0.4,0-0.9,0.5-0.9c0.5,0,1.2,0.1,2.8,0.1c1.6,0,3.4-0.1,4.1-0.1
			c0.3,0,0.4,0,0.4,0.7v12.7c0,3.5,1.1,5.5,4.6,5.5c1.7,0,4.6-1,4.6-2.5v-12.2c0-2.5-0.5-2.8-2.9-2.8c-0.8,0-1.5,0-1.5-0.5
			c0-0.7,0-0.9,0.3-0.9c0.7,0,1.2,0.1,4.1,0.1c1.2,0,2.4-0.1,3.6-0.1c0.4,0,0.7,0.2,0.7,0.7c0,0.2-0.4,3.8-0.4,7.1v8.8
			c0,0.8,0,1.7,1.2,1.7c0.7,0,1.7-0.2,2-0.2c0.2,0,0.3,0,0.3,0.9c0,0.3,0,0.4-1.5,0.6c-4,0.7-5.1,1.2-5.4,1.2
			c-0.3,0-0.6-0.3-0.6-0.7c0-0.6,0.1-1.3,0.1-1.8c-2.3,1.7-5.2,2.6-7,2.6c-4.7,0-6-3-6-7.9V122.7z"/>
		<path d="M432.7,121.9c0-1.6-0.4-2.6-2.8-2.8c-0.4,0-0.4-0.2-0.4-0.6c0-0.4,0.1-0.6,0.4-0.7c5.4-1.1,6-2.3,6.6-2.3
			c0.1,0,0.2,0.3,0.2,0.5c0,0.6-0.2,1.7-0.2,4.3c1.6-1.7,4.1-4.1,6.6-4.1c1.6,0,3,0.9,3,2.6c0,1.2-0.9,2.3-2.3,2.3
			c-1.9,0-2.2-1.8-3.6-1.8c-0.8,0-2.1,0.7-3.2,2c-0.3,0.4-0.3,0.9-0.3,1.4v10.7c0,1.7,0,2.8,2.3,2.8c1.7,0,1.9,0,1.9,0.6
			c0,0.6-0.2,0.7-0.7,0.7c-1.7,0-3.2-0.1-5.4-0.1c-3.8,0-4.6,0.1-5.4,0.1c-0.3,0-0.4-0.3-0.4-0.6c0-0.5,0.6-0.6,1.5-0.6
			c2,0,2.4-0.4,2.4-2.4V121.9z"/>
		<path d="M454.8,132.9c0,2.7,0.1,3.2,2.2,3.2c1,0,1.1,0,1.1,0.6c0,0.3,0,0.6-0.5,0.6c-0.2,0-0.8-0.1-3.9-0.1
			c-4.4,0-5.6,0.1-6.3,0.1c-0.4,0-0.4-0.3-0.4-0.5c0-0.6,0-0.7,1.8-0.7c1.2,0,1.6-0.5,1.9-1.1c0.2-0.4,0.3-3.8,0.3-6.8v-6.4
			c0-1.6-0.4-2.6-2.8-2.8c-0.4,0-0.4-0.2-0.4-0.6c0-0.4,0.1-0.6,0.4-0.7c5.4-1.1,6-2.3,6.6-2.3c0.2,0,0.3,0.2,0.3,0.5
			c0,0.2-0.2,0.7-0.2,6.8V132.9z M450.4,106.5c0-1.3,1-2.5,2.4-2.5c1.4,0,2.4,1.2,2.4,2.5c0,1.3-1,2.5-2.4,2.5
			C451.4,109,450.4,107.8,450.4,106.5z"/>
	</g>
</g>
</svg>
