<?xml version="1.0" encoding="utf-8"?>
<!-- Generator: Adobe Illustrator 17.0.0, SVG Export Plug-In . SVG Version: 6.00 Build 0)  -->
<!DOCTYPE svg PUBLIC "-//W3C//DTD SVG 1.1//EN" "http://www.w3.org/Graphics/SVG/1.1/DTD/svg11.dtd">
<svg version="1.1" id="Layer_1" xmlns="http://www.w3.org/2000/svg" xmlns:xlink="http://www.w3.org/1999/xlink" x="0px" y="0px"
	 width="38px" height="38px" viewBox="0 0 38 38" enable-background="new 0 0 38 38" xml:space="preserve">
<path fill="#F26A26" d="M2.236,33.59C1.002,33.589,0.001,32.588,0,31.354V10.65c0-0.826,0.439-1.811,2.53-1.811l33.529-0.037
	c0.935,0,1.94,0.567,1.94,1.811v20.705c-0.002,1.233-1.002,2.232-2.235,2.233L2.236,33.59z M36.059,9.619L2.531,9.656
	c-1.714,0-1.714,0.696-1.714,0.994v20.704c0.001,0.783,0.635,1.418,1.418,1.419l33.529-0.038c0.783,0,1.418-0.635,1.419-1.418
	V10.613C37.183,9.666,36.248,9.619,36.059,9.619z"/>
<path fill="#F26A26" d="M6.886,21.761H5.003C1.964,21.761,0,19.464,0,15.909v-4.872h0.817v4.872c0,3.712,2.162,5.035,4.186,5.035
	h1.882V21.761z"/>
<path fill="#F26A26" d="M32.996,21.761h-1.9v-0.817h1.9c3.09,0,4.187-2.732,4.187-5.071v-4.872H38v4.872
	C38,19.45,36.036,21.761,32.996,21.761z"/>
<path fill="#F26A26" d="M24.99,9.639h-2.587V6.997h-6.842v2.642h-2.587V6.351c-0.001-1.287,0.484-1.94,1.441-1.94h8.636
	c1.071,0.001,1.939,0.869,1.94,1.94V9.639z M23.22,8.822h0.953V6.351c-0.001-0.62-0.503-1.123-1.123-1.123h-8.636
	c-0.249,0-0.625,0-0.625,1.123v2.472h0.953V6.18h8.476L23.22,8.822z"/>
<rect x="10.332" y="9.524" fill="#F26A26" width="0.817" height="8.396"/>
<rect x="7.38" y="9.524" fill="#F26A26" width="0.817" height="8.396"/>
<rect x="10.332" y="24.73" fill="#F26A26" width="0.817" height="8.396"/>
<rect x="7.38" y="24.73" fill="#F26A26" width="0.817" height="8.396"/>
<path fill="#F26A26" d="M11.033,25.304H7.497c-0.554,0-1.004-0.45-1.004-1.004v-5.605c0.001-0.554,0.45-1.003,1.004-1.004h3.536
	c0.554,0.001,1.003,0.45,1.004,1.004V24.3C12.036,24.854,11.587,25.304,11.033,25.304z M7.497,18.509
	c-0.103,0-0.187,0.084-0.187,0.187V24.3c0,0.103,0.084,0.187,0.187,0.187h3.536c0.103,0,0.187-0.084,0.187-0.187v-5.605
	c0-0.103-0.083-0.187-0.187-0.187L7.497,18.509z"/>
<rect x="8.857" y="22.534" fill="#F26A26" width="0.817" height="1.992"/>
<path fill="#F26A26" d="M9.582,28.552H8.914c-0.857,0-1.552-0.695-1.552-1.552v-1.938h0.817v1.939c0,0.406,0.329,0.735,0.735,0.735
	h0.667c0.405-0.001,0.734-0.33,0.734-0.735v-1.939h0.817v1.939C11.131,27.857,10.438,28.551,9.582,28.552z"/>
<rect x="8.839" y="20.395" fill="#F26A26" width="0.817" height="0.933"/>
<rect x="8.839" y="16.267" fill="#F26A26" width="0.817" height="0.934"/>
<rect x="29.803" y="9.524" fill="#F26A26" width="0.817" height="8.396"/>
<rect x="26.851" y="9.524" fill="#F26A26" width="0.817" height="8.396"/>
<rect x="29.803" y="24.73" fill="#F26A26" width="0.817" height="8.396"/>
<rect x="26.851" y="24.73" fill="#F26A26" width="0.817" height="8.396"/>
<path fill="#F26A26" d="M30.503,25.304h-3.535c-0.554,0-1.004-0.45-1.004-1.004v-5.605c0.001-0.554,0.45-1.003,1.004-1.004h3.535
	c0.554,0.001,1.003,0.45,1.004,1.004V24.3C31.506,24.855,31.057,25.304,30.503,25.304z M26.968,18.509
	c-0.103,0-0.187,0.084-0.187,0.187V24.3c0,0.103,0.084,0.187,0.187,0.187h3.535c0.103,0,0.187-0.084,0.187-0.187v-5.605
	c0-0.103-0.084-0.187-0.187-0.187L26.968,18.509z"/>
<rect x="28.327" y="22.534" fill="#F26A26" width="0.817" height="1.992"/>
<path fill="#F26A26" d="M29.052,28.552h-0.667c-0.857,0-1.552-0.695-1.552-1.552v-1.938h0.817v1.939
	c0,0.406,0.329,0.735,0.735,0.735h0.667c0.406,0,0.735-0.329,0.735-0.735v-1.939h0.817v1.939
	C30.604,27.858,29.909,28.552,29.052,28.552z"/>
<rect x="28.31" y="20.395" fill="#F26A26" width="0.817" height="0.933"/>
<rect x="28.31" y="16.267" fill="#F26A26" width="0.817" height="0.934"/>
<rect x="11.609" y="20.944" fill="#F26A26" width="14.763" height="0.817"/>
</svg>
