<?xml version="1.0" encoding="utf-8"?>
<!-- Generator: Adobe Illustrator 17.0.0, SVG Export Plug-In . SVG Version: 6.00 Build 0)  -->
<!DOCTYPE svg PUBLIC "-//W3C//DTD SVG 1.1//EN" "http://www.w3.org/Graphics/SVG/1.1/DTD/svg11.dtd">
<svg version="1.1" id="Layer_1" xmlns="http://www.w3.org/2000/svg" xmlns:xlink="http://www.w3.org/1999/xlink" x="0px" y="0px"
	 width="38px" height="38px" viewBox="0 0 38 38" enable-background="new 0 0 38 38" xml:space="preserve">
<path fill="#F26A26" d="M18.93,20.123c-3.952,0.029-7.182-3.146-7.22-7.097c0.07-3.988,3.36-7.163,7.348-7.093
	c3.889,0.069,7.024,3.204,7.093,7.093C26.111,16.977,22.882,20.152,18.93,20.123z M18.93,6.771c-3.486-0.03-6.338,2.768-6.377,6.254
	c0.066,3.522,2.975,6.323,6.496,6.257c3.429-0.064,6.192-2.828,6.257-6.257C25.268,9.539,22.416,6.742,18.93,6.771z"/>
<path fill="#F26A26" d="M11.866,38.001l-3.379-5.102l-6.321-0.314l6.702-11.526c0.117-0.201,0.375-0.27,0.577-0.153
	c0.201,0.117,0.27,0.375,0.153,0.577L3.592,31.81l5.363,0.266l2.866,4.327l6.365-10.901c0.112-0.204,0.369-0.279,0.573-0.166
	c0.204,0.112,0.279,0.369,0.166,0.573c-0.003,0.006-0.007,0.012-0.011,0.018L11.866,38.001z"/>
<path fill="#F26A26" d="M26.13,38.001l-7.048-12.073c-0.112-0.204-0.038-0.461,0.166-0.573c0.197-0.108,0.444-0.043,0.562,0.148
	l6.365,10.901l2.866-4.327l5.361-0.266l-6.097-10.402c-0.118-0.201-0.051-0.46,0.15-0.577c0.201-0.118,0.46-0.051,0.577,0.15l0,0
	l6.8,11.603l-6.324,0.314L26.13,38.001z"/>
<path fill="#F26A26" d="M18.93,26.051c-7.31,0-13.257-5.843-13.257-13.026S11.62,0,18.93,0s13.257,5.843,13.257,13.026
	S26.241,26.051,18.93,26.051z M18.93,0.844c-6.844,0-12.413,5.465-12.413,12.182s5.569,12.182,12.413,12.182
	s12.414-5.465,12.414-12.182S25.775,0.844,18.93,0.844z"/>
</svg>
