<?xml version="1.0" encoding="utf-8"?>
<!-- Generator: Adobe Illustrator 17.0.0, SVG Export Plug-In . SVG Version: 6.00 Build 0)  -->
<!DOCTYPE svg PUBLIC "-//W3C//DTD SVG 1.1//EN" "http://www.w3.org/Graphics/SVG/1.1/DTD/svg11.dtd">
<svg version="1.1" id="Layer_1" xmlns="http://www.w3.org/2000/svg" xmlns:xlink="http://www.w3.org/1999/xlink" x="0px" y="0px"
	 width="38px" height="38px" viewBox="0 0 38 38" enable-background="new 0 0 38 38" xml:space="preserve">
<path fill="#F26A26" d="M6.147,25.736H0V8.738h6.147c0.837,0.001,1.515,0.679,1.516,1.516v13.967
	C7.661,25.058,6.983,25.736,6.147,25.736z M0.772,24.964h5.374c0.41,0,0.743-0.333,0.743-0.743V10.254
	c0-0.41-0.333-0.743-0.743-0.743H0.772V24.964z"/>
<path fill="#F26A26" d="M16.728,11.202H7.276c-0.213,0-0.386-0.173-0.386-0.386s0.173-0.386,0.386-0.386h9.452
	c0.213,0,0.386,0.173,0.386,0.386S16.941,11.202,16.728,11.202z"/>
<path fill="#F26A26" d="M30.668,24.553h-3.295c-0.213,0-0.386-0.173-0.386-0.386c0-0.213,0.173-0.386,0.386-0.386h3.295
	c0.213,0,0.386,0.173,0.386,0.386C31.054,24.38,30.881,24.553,30.668,24.553z"/>
<path fill="#F26A26" d="M15.061,29.262c-0.096,0-0.192-0.008-0.287-0.023c-0.46-0.074-0.872-0.329-1.143-0.708l-4.293-5.877H7.276
	c-0.213,0-0.386-0.173-0.386-0.386c0-0.213,0.173-0.386,0.386-0.386H9.73l4.526,6.196c0.316,0.442,0.93,0.545,1.372,0.229
	c0.001-0.001,0.002-0.001,0.003-0.002l0.321-0.23c0.468-0.336,0.772-0.969,0.482-1.373l-1.479-2.058
	c-0.128-0.171-0.093-0.413,0.078-0.541c0.171-0.128,0.413-0.093,0.541,0.078c0.003,0.004,0.006,0.008,0.009,0.012l1.479,2.058
	c0.579,0.806,0.109,1.9-0.659,2.451l-0.321,0.23C15.785,29.146,15.427,29.262,15.061,29.262z"/>
<path fill="#F26A26" d="M18.856,28.893c-0.52,0.018-1.015-0.221-1.326-0.638l-2.574-3.614c-0.12-0.176-0.074-0.417,0.102-0.537
	c0.171-0.116,0.403-0.077,0.527,0.089l2.574,3.612c0.306,0.425,1.03,0.386,1.475,0.068l0.32-0.23c0.409-0.294,0.529-0.85,0.28-1.287
	l-2.545-3.549l0.626-0.453l0.674,0.924l1.817,2.542c0.027,0.038,0.053,0.076,0.077,0.116l0.682,0.958
	c0.157,0.197,0.395,0.312,0.646,0.313c0.296,0.012,0.587-0.075,0.829-0.245l0.32-0.23c0.401-0.289,0.526-0.83,0.292-1.266
	l-3.215-4.415l0.624-0.455l3.149,4.31c0.033,0.046,0.063,0.093,0.091,0.14l0.664,0.912c0.316,0.442,0.93,0.544,1.372,0.228
	c0.001-0.001,0.002-0.001,0.003-0.002l0.321-0.23c0.422-0.304,0.483-1.273,0.119-1.887l-0.013-0.024l-2.292-4.573l-0.905-1.77
	c-0.748-1.296-1.416-2.227-1.972-2.752c-0.276-0.298-0.672-0.455-1.078-0.428c-0.918,0.075-2.114,1.068-3.553,2.953
	c-0.531,0.767-1.451,1.165-2.374,1.026c-1.255-0.175-2.38-1.186-2.574-1.678c-0.078-0.166-0.056-0.362,0.056-0.508
	c0.715-0.883,1.346-1.747,1.902-2.51c1.804-2.472,3.229-4.425,5.796-4.616H19.8l4.203-0.011c0.668,0.001,1.328,0.144,1.937,0.42
	l4.871,2.229c0.194,0.089,0.279,0.318,0.191,0.512c-0.089,0.194-0.318,0.279-0.512,0.191l-4.871-2.228
	c-0.504-0.232-1.051-0.351-1.606-0.351h-0.008l-4.189,0.009c-2.202,0.17-3.467,1.903-5.216,4.299
	c-0.529,0.724-1.124,1.54-1.798,2.382c0.492,0.568,1.161,0.953,1.899,1.095c0.646,0.1,1.291-0.185,1.651-0.731
	c1.601-2.095,2.943-3.159,4.104-3.254c0.623-0.044,1.234,0.189,1.67,0.636c0.612,0.576,1.325,1.567,2.121,2.945l0.916,1.79
	l2.288,4.564c0.517,0.884,0.484,2.305-0.339,2.896l-0.32,0.23c-0.739,0.531-1.761,0.41-2.355-0.279
	c-0.12,0.332-0.338,0.621-0.625,0.827l-0.321,0.23c-0.384,0.272-0.846,0.409-1.316,0.39c-0.438-0.009-0.854-0.198-1.148-0.523
	c-0.121,0.328-0.338,0.612-0.622,0.815l-0.32,0.23C19.724,28.754,19.296,28.891,18.856,28.893z"/>
<path fill="#F26A26" d="M37.999,26.96h-6.22c-0.837-0.001-1.515-0.679-1.516-1.516V11.477c0.001-0.837,0.679-1.515,1.516-1.516h6.22
	V26.96z M31.779,10.734c-0.41,0-0.743,0.333-0.743,0.743v13.967c0,0.41,0.333,0.743,0.743,0.743h5.448V10.734H31.779z"/>
</svg>
