<?xml version="1.0" encoding="utf-8"?>
<!-- Generator: Adobe Illustrator 20.1.0, SVG Export Plug-In . SVG Version: 6.00 Build 0)  -->
<svg version="1.1" id="Layer_1" xmlns="http://www.w3.org/2000/svg" xmlns:xlink="http://www.w3.org/1999/xlink" x="0px" y="0px"
	 viewBox="0 0 82 82" style="enable-background:new 0 0 82 82;" xml:space="preserve">
<style type="text/css">
	.st0{fill:#FFFFFF;}
</style>
<title>Icons</title>
<path class="st0" d="M41,82C18.4,82,0,63.6,0,41S18.4,0,41,0s41,18.4,41,41C82,63.6,63.6,82,41,82z M41,2C19.5,2,2,19.5,2,41
	s17.5,39,39,39s39-17.5,39-39C80,19.5,62.5,2,41,2z"/>
<path class="st0" d="M52,23H30c-3.8,0-7,3.1-7,7V52c0,3.8,3.1,6.9,7,7H52c3.8,0,6.9-3.1,7-7V30C59,26.1,55.9,23,52,23z M54,27.2h0.8
	v6.1l-6.1,0l0-6.1L54,27.2z M35.9,37.3c2-2.8,6-3.5,8.8-1.4c2.8,2,3.5,6,1.4,8.8c-2,2.8-6,3.5-8.8,1.4c-1.6-1.2-2.6-3.1-2.6-5.1
	C34.7,39.7,35.1,38.4,35.9,37.3z M55.5,52c0,1.9-1.5,3.4-3.5,3.4H30c-1.9,0-3.4-1.5-3.4-3.4V37.3h5.4c-2,5,0.4,10.8,5.4,12.8
	c5,2,10.8-0.4,12.8-5.4c1-2.4,1-5,0-7.4h5.4V52z"/>
</svg>
