<?xml version="1.0" encoding="utf-8"?>
<!-- Generator: Adobe Illustrator 17.0.0, SVG Export Plug-In . SVG Version: 6.00 Build 0)  -->
<!DOCTYPE svg PUBLIC "-//W3C//DTD SVG 1.1//EN" "http://www.w3.org/Graphics/SVG/1.1/DTD/svg11.dtd">
<svg version="1.1" id="Layer_1" xmlns="http://www.w3.org/2000/svg" xmlns:xlink="http://www.w3.org/1999/xlink" x="0px" y="0px"
	 width="38px" height="38px" viewBox="0 0 38 38" enable-background="new 0 0 38 38" xml:space="preserve">
<path fill="#F26A26" d="M19,38C8.507,38,0,29.493,0,19S8.507,0,19,0s19,8.507,19,19C37.988,29.489,29.489,37.988,19,38z M19,0.847
	C8.975,0.847,0.847,8.974,0.847,19S8.975,37.153,19,37.153c10.026,0,18.153-8.127,18.153-18.153C37.142,8.979,29.021,0.858,19,0.847
	z"/>
<rect x="18.517" y="0.334" transform="matrix(-0.7071 0.7071 -0.7071 -0.7071 45.7258 18.9403)" fill="#F26A26" width="0.847" height="37.212"/>
<polygon fill="#F26A26" points="19.821,17.626 19.821,5.564 18.142,5.564 18.142,15.947 "/>
<path fill="#F26A26" d="M20.1,31.012c-0.153-0.152-0.333-0.274-0.531-0.36c-0.205-0.091-0.427-0.137-0.651-0.136
	c-0.227-0.003-0.451,0.043-0.658,0.136c-0.195,0.087-0.373,0.209-0.524,0.36c-0.151,0.152-0.271,0.333-0.351,0.532
	c-0.085,0.206-0.128,0.427-0.127,0.649c-0.015,0.903,0.705,1.646,1.607,1.661c0.018,0,0.035,0,0.053,0
	c0.223,0.001,0.445-0.042,0.651-0.127c0.199-0.081,0.379-0.201,0.531-0.352c0.151-0.152,0.273-0.329,0.362-0.523
	c0.091-0.208,0.137-0.432,0.134-0.659c0.001-0.223-0.044-0.445-0.134-0.649C20.375,31.346,20.252,31.166,20.1,31.012z"/>
<path fill="#F26A26" d="M18.204,24.48c0.019,0.5,0.046,1.026,0.083,1.579c0.037,0.553,0.073,1.167,0.108,1.841h1.173
	c0.035-0.674,0.071-1.288,0.108-1.841c0.035-0.553,0.062-1.079,0.081-1.579s0.034-0.99,0.044-1.471
	c0.008-0.318,0.012-0.653,0.015-0.997l-1.675-1.675v1.138c0,0.541,0.006,1.053,0.018,1.534
	C18.172,23.491,18.188,23.981,18.204,24.48z"/>
</svg>
