<?xml version="1.0" encoding="utf-8"?>
<!-- Generator: Adobe Illustrator 20.1.0, SVG Export Plug-In . SVG Version: 6.00 Build 0)  -->
<svg version="1.1" id="Layer_1" xmlns="http://www.w3.org/2000/svg" xmlns:xlink="http://www.w3.org/1999/xlink" x="0px" y="0px"
	 viewBox="0 0 963.1 1096.2" style="enable-background:new 0 0 963.1 1096.2;" xml:space="preserve">
<style type="text/css">
	.st0{fill:none;stroke:#F8F8F9;stroke-width:0.5;stroke-miterlimit:10;}
	.st1{fill:none;stroke:#F8F8F9;stroke-width:3.8;stroke-miterlimit:10;}
	.st2{fill:none;stroke:#F8F8F9;stroke-width:7.1;stroke-miterlimit:10;}
	.st3{fill:none;stroke:#F8F8F9;stroke-width:10.4;stroke-miterlimit:10;}
	.st4{fill:none;stroke:#F8F8F9;stroke-width:13.7;stroke-miterlimit:10;}
	.st5{fill:none;stroke:#F8F8F9;stroke-width:17;stroke-miterlimit:10;}
	.st6{fill:none;stroke:#F8F8F9;stroke-width:20.3;stroke-miterlimit:10;}
	.st7{fill:none;stroke:#F8F8F9;stroke-width:23.6;stroke-miterlimit:10;}
	.st8{fill:none;stroke:#F8F8F9;stroke-width:26.9;stroke-miterlimit:10;}
	.st9{fill:none;stroke:#F8F8F9;stroke-width:30.2;stroke-miterlimit:10;}
	.st10{fill:none;stroke:#F8F8F9;stroke-width:33.5;stroke-miterlimit:10;}
	.st11{fill:none;stroke:#F8F8F9;stroke-width:36.8;stroke-miterlimit:10;}
	.st12{fill:none;stroke:#F8F8F9;stroke-width:40.1;stroke-miterlimit:10;}
	.st13{fill:none;stroke:#F8F8F9;stroke-width:43.4;stroke-miterlimit:10;}
	.st14{fill:none;stroke:#F8F8F9;stroke-width:46.7;stroke-miterlimit:10;}
	.st15{fill:none;stroke:#F8F8F9;stroke-width:50;stroke-miterlimit:10;}
</style>
<g>
	<line class="st0" x1="-188.3" y1="-425.2" x2="261.6" y2="1728.4"/>
	<line class="st1" x1="-7.9" y1="-349.2" x2="236" y2="1715.6"/>
	<line class="st2" x1="172.4" y1="-273.2" x2="210.4" y2="1702.8"/>
	<line class="st3" x1="352.8" y1="-197.2" x2="184.8" y2="1690"/>
	<line class="st4" x1="533.2" y1="-121.2" x2="159.2" y2="1677.2"/>
	<line class="st5" x1="713.5" y1="-45.2" x2="133.7" y2="1664.4"/>
	<line class="st6" x1="893.9" y1="30.7" x2="108.1" y2="1651.6"/>
	<line class="st7" x1="1074.3" y1="106.7" x2="82.5" y2="1638.8"/>
	<line class="st8" x1="1254.6" y1="182.7" x2="56.9" y2="1626"/>
	<line class="st9" x1="1435" y1="258.7" x2="31.3" y2="1613.2"/>
	<line class="st10" x1="1615.4" y1="334.7" x2="5.7" y2="1600.4"/>
	<line class="st11" x1="1795.7" y1="410.7" x2="-19.9" y2="1587.6"/>
	<line class="st12" x1="1976.1" y1="486.6" x2="-45.5" y2="1574.8"/>
	<line class="st13" x1="2156.4" y1="562.6" x2="-71.1" y2="1562"/>
	<line class="st14" x1="2336.8" y1="638.6" x2="-96.7" y2="1549.2"/>
	<line class="st15" x1="2517.2" y1="714.6" x2="-122.3" y2="1536.4"/>
</g>
</svg>
