<?xml version="1.0" encoding="utf-8"?>
<!-- Generator: Adobe Illustrator 17.0.0, SVG Export Plug-In . SVG Version: 6.00 Build 0)  -->
<!DOCTYPE svg PUBLIC "-//W3C//DTD SVG 1.1//EN" "http://www.w3.org/Graphics/SVG/1.1/DTD/svg11.dtd">
<svg version="1.1" id="Layer_1" xmlns="http://www.w3.org/2000/svg" xmlns:xlink="http://www.w3.org/1999/xlink" x="0px" y="0px"
	 width="125px" height="106.042px" viewBox="0 0 125 106.042" enable-background="new 0 0 125 106.042" xml:space="preserve">
<g>
	<defs>
		<rect id="SVGID_1_" y="0" width="125" height="106.042"/>
	</defs>
	<clipPath id="SVGID_2_">
		<use xlink:href="#SVGID_1_"  overflow="visible"/>
	</clipPath>
	<path clip-path="url(#SVGID_2_)" fill="#FFFFFF" d="M116,21.866c2.757,0,5,2.243,5,5v70.176c0,2.757-2.243,5-5,5H9
		c-2.757,0-5-2.243-5-5V26.866c0-2.757,2.243-5,5-5H116 M116,17.866H9c-4.95,0-9,4.05-9,9v70.176c0,4.95,4.05,9,9,9h107
		c4.95,0,9-4.05,9-9V26.866C125,21.916,120.95,17.866,116,17.866"/>
	<path clip-path="url(#SVGID_2_)" fill="none" stroke="#FFFFFF" stroke-width="4" stroke-miterlimit="10" d="M36.769,19.219v-8.098
		C36.769,6.104,40.874,2,45.891,2h33.218c5.017,0,9.122,4.104,9.122,9.121v8.098"/>
	
		<line clip-path="url(#SVGID_2_)" fill="none" stroke="#FFFFFF" stroke-width="4" stroke-miterlimit="10" x1="1.43" y1="45.266" x2="123.57" y2="45.266"/>
	
		<line clip-path="url(#SVGID_2_)" fill="none" stroke="#FFFFFF" stroke-width="4" stroke-miterlimit="10" x1="25.845" y1="60.064" x2="25.845" y2="46.114"/>
	
		<line clip-path="url(#SVGID_2_)" fill="none" stroke="#FFFFFF" stroke-width="4" stroke-miterlimit="10" x1="98.816" y1="60.064" x2="98.816" y2="46.114"/>
</g>
</svg>
