<?xml version="1.0" encoding="utf-8"?>
<!-- Generator: Adobe Illustrator 17.0.0, SVG Export Plug-In . SVG Version: 6.00 Build 0)  -->
<!DOCTYPE svg PUBLIC "-//W3C//DTD SVG 1.1//EN" "http://www.w3.org/Graphics/SVG/1.1/DTD/svg11.dtd">
<svg version="1.1" id="Layer_1" xmlns="http://www.w3.org/2000/svg" xmlns:xlink="http://www.w3.org/1999/xlink" x="0px" y="0px"
	 width="124.083px" height="123.25px" viewBox="0 0 124.083 123.25" enable-background="new 0 0 124.083 123.25"
	 xml:space="preserve">
<g>
	<defs>
		<rect id="SVGID_1_" width="124.083" height="123.25"/>
	</defs>
	<clipPath id="SVGID_2_">
		<use xlink:href="#SVGID_1_"  overflow="visible"/>
	</clipPath>
	
		<path clip-path="url(#SVGID_2_)" fill="none" stroke="#FFFFFF" stroke-width="4" stroke-linejoin="round" stroke-miterlimit="10" d="
		M70.715,118.766c-0.377,1.276-1.112,2.484-2.484,2.484H54.949c-1.372,0-2.111-1.125-2.484-2.484l-6.791-30.898
		C35.502,82.377,28.59,71.621,28.59,59.25c0-17.949,14.551-32.5,32.5-32.5s32.5,14.551,32.5,32.5
		c0,12.34-6.878,23.074-17.009,28.577L70.715,118.766z"/>
	
		<line clip-path="url(#SVGID_2_)" fill="none" stroke="#FFFFFF" stroke-width="4" stroke-linejoin="round" stroke-miterlimit="10" x1="61.09" y1="2" x2="61.09" y2="18.25"/>
	
		<line clip-path="url(#SVGID_2_)" fill="none" stroke="#FFFFFF" stroke-width="4" stroke-linejoin="round" stroke-miterlimit="10" x1="19.593" y1="17.88" x2="31.083" y2="29.37"/>
	
		<line clip-path="url(#SVGID_2_)" fill="none" stroke="#FFFFFF" stroke-width="4" stroke-linejoin="round" stroke-miterlimit="10" x1="19.593" y1="99.745" x2="31.083" y2="88.255"/>
	
		<line clip-path="url(#SVGID_2_)" fill="none" stroke="#FFFFFF" stroke-width="4" stroke-linejoin="round" stroke-miterlimit="10" x1="2" y1="58.875" x2="18.25" y2="58.875"/>
	
		<line clip-path="url(#SVGID_2_)" fill="none" stroke="#FFFFFF" stroke-width="4" stroke-linejoin="round" stroke-miterlimit="10" x1="104.491" y1="17.88" x2="93" y2="29.37"/>
	
		<line clip-path="url(#SVGID_2_)" fill="none" stroke="#FFFFFF" stroke-width="4" stroke-linejoin="round" stroke-miterlimit="10" x1="104.491" y1="99.745" x2="93" y2="88.255"/>
	
		<line clip-path="url(#SVGID_2_)" fill="none" stroke="#FFFFFF" stroke-width="4" stroke-linejoin="round" stroke-miterlimit="10" x1="122.083" y1="58.875" x2="105.833" y2="58.875"/>
	
		<line clip-path="url(#SVGID_2_)" fill="none" stroke="#FFFFFF" stroke-width="4" stroke-linejoin="round" stroke-miterlimit="10" x1="48.028" y1="96" x2="74.152" y2="96"/>
	
		<path clip-path="url(#SVGID_2_)" fill="none" stroke="#FFFFFF" stroke-width="4" stroke-linejoin="round" stroke-miterlimit="10" d="
		M55.332,57.875L55.332,57.875c3.163,0,5.75,2.587,5.75,5.75V95"/>
	
		<path clip-path="url(#SVGID_2_)" fill="none" stroke="#FFFFFF" stroke-width="4" stroke-linejoin="round" stroke-miterlimit="10" d="
		M66.848,57.875L66.848,57.875c-3.163,0-5.75,2.587-5.75,5.75V95"/>
	
		<line clip-path="url(#SVGID_2_)" fill="none" stroke="#FFFFFF" stroke-width="4" stroke-linejoin="round" stroke-miterlimit="10" x1="50.671" y1="108.833" x2="72.338" y2="108.833"/>
	
		<line clip-path="url(#SVGID_2_)" fill="none" stroke="#FFFFFF" stroke-width="4" stroke-linejoin="round" stroke-miterlimit="10" x1="51.838" y1="115" x2="71.005" y2="115"/>
</g>
</svg>
