<?xml version="1.0" encoding="utf-8"?>
<!-- Generator: Adobe Illustrator 17.0.0, SVG Export Plug-In . SVG Version: 6.00 Build 0)  -->
<!DOCTYPE svg PUBLIC "-//W3C//DTD SVG 1.1//EN" "http://www.w3.org/Graphics/SVG/1.1/DTD/svg11.dtd">
<svg version="1.1" id="Layer_1" xmlns="http://www.w3.org/2000/svg" xmlns:xlink="http://www.w3.org/1999/xlink" x="0px" y="0px"
	 width="38px" height="38px" viewBox="0 0 38 38" enable-background="new 0 0 38 38" xml:space="preserve">
<rect x="16.184" y="37.075" fill="#F26A26" width="21.566" height="0.925"/>
<path fill="#F26A26" d="M0.587,38c-0.255,0-0.462-0.207-0.462-0.463c0-0.043,0.006-0.086,0.018-0.127L3.204,26.74
	c0.021-0.075,0.062-0.144,0.117-0.2L28.633,1.227c1.637-1.637,4.29-1.637,5.927,0l2.089,2.089c1.635,1.637,1.635,4.289,0,5.926
	L11.337,34.556c-0.052,0.052-0.116,0.091-0.187,0.114L0.727,37.978C0.682,37.993,0.635,38,0.587,38z M4.06,27.109l-2.79,9.727
	l9.493-3.014L35.996,8.589c1.274-1.276,1.274-3.342,0-4.618l-2.09-2.09c-1.276-1.274-3.343-1.274-4.619,0L4.06,27.109z
	 M11.01,34.228L11.01,34.228z"/>
<rect x="29.78" y="1.966" transform="matrix(-0.7071 0.7071 -0.7071 -0.7071 57.025 -8.3526)" fill="#F26A26" width="0.925" height="11.336"/>
<path fill="#F26A26" d="M9.604,28.818c-0.255,0-0.463-0.207-0.463-0.462c0-0.123,0.049-0.241,0.136-0.327l17.951-17.95
	c0.19-0.171,0.482-0.157,0.653,0.033c0.159,0.176,0.159,0.443,0.001,0.62L9.931,28.683C9.844,28.77,9.726,28.818,9.604,28.818z"/>
<rect x="27.216" y="4.531" transform="matrix(-0.7071 0.7071 -0.7071 -0.7071 54.4615 -2.1606)" fill="#F26A26" width="0.925" height="11.336"/>
<rect x="3.237" y="31.785" transform="matrix(-0.7071 0.7071 -0.7071 -0.7071 30.556 55.9034)" fill="#F26A26" width="0.925" height="4.99"/>
<path fill="#F26A26" d="M11.072,34.132c-0.075,0-0.148-0.018-0.214-0.053L9.27,33.247V28.71H4.737l-0.956-1.746
	c-0.13-0.22-0.057-0.504,0.163-0.633c0.22-0.13,0.504-0.057,0.633,0.163c0.005,0.008,0.01,0.017,0.014,0.026l0.693,1.264h4.91v4.903
	l1.093,0.574c0.226,0.118,0.314,0.398,0.195,0.624C11.403,34.037,11.244,34.133,11.072,34.132z"/>
</svg>
