<?xml version="1.0" encoding="utf-8"?>
<!-- Generator: Adobe Illustrator 17.0.0, SVG Export Plug-In . SVG Version: 6.00 Build 0)  -->
<!DOCTYPE svg PUBLIC "-//W3C//DTD SVG 1.1//EN" "http://www.w3.org/Graphics/SVG/1.1/DTD/svg11.dtd">
<svg version="1.1" id="Layer_1" xmlns="http://www.w3.org/2000/svg" xmlns:xlink="http://www.w3.org/1999/xlink" x="0px" y="0px"
	 width="38px" height="38px" viewBox="0 0 38 38" enable-background="new 0 0 38 38" xml:space="preserve">
<path fill="#F26A26" d="M37.94,15.116c-0.023-0.162-0.128-0.301-0.278-0.367L19.163,6.688c-0.06-0.027-0.124-0.04-0.19-0.041
	c-0.064,0-0.126,0.014-0.184,0.04L0.283,14.749c-0.239,0.104-0.348,0.383-0.243,0.622c0.048,0.109,0.134,0.196,0.243,0.243
	l4.663,2.032v9.016c0,0.157,0.078,0.305,0.209,0.393c4.075,2.779,8.888,4.276,13.82,4.299c4.932-0.024,9.744-1.521,13.819-4.3
	c0.13-0.088,0.209-0.235,0.208-0.392v-9.016l4.055-1.767v11.616c0,0.261,0.211,0.473,0.471,0.473c0.261,0,0.473-0.211,0.473-0.471
	c0-0.001,0-0.001,0-0.002V15.385c0-0.062-0.012-0.124-0.036-0.182L37.94,15.116z M32.056,26.407l-0.161,0.104
	c-3.841,2.514-8.33,3.86-12.921,3.872c-4.591-0.012-9.08-1.357-12.921-3.872l-0.161-0.104v-8.35l12.894,5.617
	c0.12,0.053,0.256,0.053,0.376,0l12.895-5.619L32.056,26.407z M18.974,22.728L1.655,15.182l17.319-7.546l17.315,7.546L18.974,22.728
	z"/>
</svg>
