<?xml version="1.0" encoding="utf-8"?>
<!-- Generator: Adobe Illustrator 17.0.0, SVG Export Plug-In . SVG Version: 6.00 Build 0)  -->
<!DOCTYPE svg PUBLIC "-//W3C//DTD SVG 1.1//EN" "http://www.w3.org/Graphics/SVG/1.1/DTD/svg11.dtd">
<svg version="1.1" id="Capa_1" xmlns="http://www.w3.org/2000/svg" xmlns:xlink="http://www.w3.org/1999/xlink" x="0px" y="0px"
	 width="512px" height="512px" viewBox="0 0 512 512" enable-background="new 0 0 512 512" xml:space="preserve">
<g>
	<g>
		<path fill="#FFFFFF" d="M256,512c141.155,0,256-114.845,256-256S397.155,0,256,0S0,114.845,0,256S114.845,512,256,512z
			 M256,25.579c127.06,0,230.421,103.361,230.421,230.421S383.06,486.421,256,486.421S25.579,383.06,25.579,256
			S128.94,25.579,256,25.579z"/>
		<path fill="#FFFFFF" d="M207.661,337.018c2.506,2.506,5.742,3.759,9.083,3.759s6.577-1.253,9.083-3.759
			c5.011-5.011,5.011-13.051,0-18.062l-50.114-50.114h191.478c7.099,0,12.842-5.742,12.842-12.842s-5.742-12.842-12.842-12.842
			H175.713l50.114-50.114c5.011-5.011,5.011-13.051,0-18.062c-5.011-5.011-13.051-5.011-18.062,0l-71.935,71.935
			c-5.011,5.011-5.011,13.051,0,18.062L207.661,337.018z"/>
	</g>
</g>
</svg>
