<?xml version="1.0" encoding="utf-8"?>
<!-- Generator: Adobe Illustrator 17.0.0, SVG Export Plug-In . SVG Version: 6.00 Build 0)  -->
<!DOCTYPE svg PUBLIC "-//W3C//DTD SVG 1.1//EN" "http://www.w3.org/Graphics/SVG/1.1/DTD/svg11.dtd">
<svg version="1.1" id="Layer_1" xmlns="http://www.w3.org/2000/svg" xmlns:xlink="http://www.w3.org/1999/xlink" x="0px" y="0px"
	 width="124.988px" height="82.068px" viewBox="0 0 124.988 82.068" enable-background="new 0 0 124.988 82.068"
	 xml:space="preserve">
<g>
	<defs>
		<rect id="SVGID_1_" y="0.001" width="124.988" height="82.067"/>
	</defs>
	<clipPath id="SVGID_2_">
		<use xlink:href="#SVGID_1_"  overflow="visible"/>
	</clipPath>
	<path clip-path="url(#SVGID_2_)" fill="#484C56" d="M21.224,46.755L21.224,46.755c-0.039,0.566-0.529,0.993-1.095,0.954
		l-0.068-0.005c-0.565-0.039-0.992-0.529-0.954-1.094c0.039-0.566,0.529-0.993,1.095-0.954l0.068,0.004
		C20.836,45.699,21.263,46.189,21.224,46.755"/>
	<path clip-path="url(#SVGID_2_)" fill="none" stroke="#FFFFFF" stroke-width="1.25" stroke-miterlimit="10" d="M21.224,46.755
		L21.224,46.755c-0.039,0.566-0.529,0.993-1.095,0.954l-0.068-0.005c-0.565-0.039-0.992-0.529-0.954-1.094
		c0.039-0.566,0.529-0.993,1.095-0.954l0.068,0.004C20.836,45.699,21.263,46.189,21.224,46.755"/>
	<path clip-path="url(#SVGID_2_)" fill="#FFFFFF" d="M28.484,42.63L28.484,42.63c-0.49,0.286-1.118,0.121-1.404-0.369l-1.055-1.643
		c-0.286-0.49-0.121-1.119,0.369-1.404c0.489-0.286,1.118-0.121,1.404,0.368l1.055,1.644C29.139,41.715,28.974,42.344,28.484,42.63"
		/>
	<path clip-path="url(#SVGID_2_)" fill="none" stroke="#FFFFFF" stroke-width="1.25" stroke-miterlimit="10" d="M28.484,42.63
		L28.484,42.63c-0.49,0.286-1.118,0.121-1.404-0.369l-1.055-1.643c-0.286-0.49-0.121-1.119,0.369-1.404
		c0.489-0.286,1.118-0.121,1.404,0.368l1.055,1.644C29.139,41.715,28.974,42.344,28.484,42.63"/>
	<path clip-path="url(#SVGID_2_)" fill="#FFFFFF" d="M36.267,39.674L36.267,39.674c-0.55,0.14-1.108-0.193-1.248-0.742l-1.099-3.666
		c-0.14-0.55,0.193-1.109,0.742-1.248c0.55-0.14,1.108,0.193,1.248,0.742l1.099,3.666C37.149,38.976,36.816,39.534,36.267,39.674"/>
	<path clip-path="url(#SVGID_2_)" fill="none" stroke="#FFFFFF" stroke-width="1.25" stroke-miterlimit="10" d="M36.267,39.674
		L36.267,39.674c-0.55,0.14-1.108-0.193-1.248-0.742l-1.099-3.666c-0.14-0.55,0.193-1.109,0.742-1.248
		c0.55-0.14,1.108,0.193,1.248,0.742l1.099,3.666C37.149,38.976,36.816,39.534,36.267,39.674"/>
	<path clip-path="url(#SVGID_2_)" fill="#FFFFFF" d="M44.306,37.75L44.306,37.75c-0.566,0.033-1.051-0.399-1.084-0.965l-0.578-5.838
		c-0.033-0.566,0.4-1.051,0.966-1.084c0.566-0.033,1.051,0.4,1.084,0.966l0.578,5.837C45.304,37.232,44.872,37.717,44.306,37.75"/>
	<path clip-path="url(#SVGID_2_)" fill="none" stroke="#FFFFFF" stroke-width="1.25" stroke-miterlimit="10" d="M44.306,37.75
		L44.306,37.75c-0.566,0.033-1.051-0.399-1.084-0.965l-0.578-5.838c-0.033-0.566,0.4-1.051,0.966-1.084
		c0.566-0.033,1.051,0.4,1.084,0.966l0.578,5.837C45.304,37.232,44.872,37.717,44.306,37.75"/>
	<path clip-path="url(#SVGID_2_)" fill="#FFFFFF" d="M52.435,36.849L52.435,36.849c-0.565-0.05-0.982-0.549-0.932-1.113l0.385-7.824
		c0.05-0.565,0.549-0.982,1.114-0.932c0.564,0.05,0.982,0.548,0.931,1.113l-0.385,7.824C53.498,36.482,53,36.899,52.435,36.849"/>
	<path clip-path="url(#SVGID_2_)" fill="none" stroke="#FFFFFF" stroke-width="1.25" stroke-miterlimit="10" d="M52.435,36.849
		L52.435,36.849c-0.565-0.05-0.982-0.549-0.932-1.113l0.385-7.824c0.05-0.565,0.549-0.982,1.114-0.932
		c0.564,0.05,0.982,0.548,0.931,1.113l-0.385,7.824C53.498,36.482,53,36.899,52.435,36.849"/>
	<path clip-path="url(#SVGID_2_)" fill="#FFFFFF" d="M60.7,36.933L60.7,36.933c-0.553-0.125-0.9-0.674-0.775-1.228l1.788-9.65
		c0.125-0.553,0.674-0.901,1.227-0.776c0.554,0.125,0.901,0.675,0.776,1.228l-1.788,9.651C61.803,36.711,61.253,37.058,60.7,36.933"
		/>
	<path clip-path="url(#SVGID_2_)" fill="none" stroke="#FFFFFF" stroke-width="1.25" stroke-miterlimit="10" d="M60.7,36.933
		L60.7,36.933c-0.553-0.125-0.9-0.674-0.775-1.228l1.788-9.65c0.125-0.553,0.674-0.901,1.227-0.776
		c0.554,0.125,0.901,0.675,0.776,1.228l-1.788,9.651C61.803,36.711,61.253,37.058,60.7,36.933"/>
	<path clip-path="url(#SVGID_2_)" fill="#FFFFFF" d="M68.777,38.046L68.777,38.046c-0.533-0.193-0.809-0.781-0.616-1.315
		l3.643-11.291c0.193-0.533,0.781-0.809,1.315-0.616c0.533,0.192,0.809,0.781,0.616,1.314L70.092,37.43
		C69.899,37.963,69.31,38.239,68.777,38.046"/>
	<path clip-path="url(#SVGID_2_)" fill="none" stroke="#FFFFFF" stroke-width="1.25" stroke-miterlimit="10" d="M68.777,38.046
		L68.777,38.046c-0.533-0.193-0.809-0.781-0.616-1.315l3.643-11.291c0.193-0.533,0.781-0.809,1.315-0.616
		c0.533,0.192,0.809,0.781,0.616,1.314L70.092,37.43C69.899,37.963,69.31,38.239,68.777,38.046"/>
	<path clip-path="url(#SVGID_2_)" fill="#FFFFFF" d="M76.734,40.182L76.734,40.182c-0.506-0.256-0.708-0.874-0.452-1.38
		l5.787-12.536c0.256-0.506,0.873-0.709,1.379-0.452c0.506,0.256,0.708,0.873,0.452,1.379L78.114,39.73
		C77.858,40.236,77.24,40.438,76.734,40.182"/>
	<path clip-path="url(#SVGID_2_)" fill="none" stroke="#FFFFFF" stroke-width="1.25" stroke-miterlimit="10" d="M76.734,40.182
		L76.734,40.182c-0.506-0.256-0.708-0.874-0.452-1.38l5.787-12.536c0.256-0.506,0.873-0.709,1.379-0.452
		c0.506,0.256,0.708,0.873,0.452,1.379L78.114,39.73C77.858,40.236,77.24,40.438,76.734,40.182"/>
	<path clip-path="url(#SVGID_2_)" fill="none" stroke="#FFFFFF" stroke-width="1.25" stroke-miterlimit="10" d="M84.531,43.369
		L84.531,43.369c-0.474-0.311-0.607-0.947-0.296-1.421l8.109-13.459c0.311-0.474,0.948-0.606,1.422-0.296
		c0.474,0.311,0.606,0.948,0.296,1.422l-8.11,13.458C85.641,43.547,85.005,43.68,84.531,43.369"/>
	<path clip-path="url(#SVGID_2_)" fill="none" stroke="#FFFFFF" stroke-width="1.25" stroke-miterlimit="10" d="M84.531,43.369
		L84.531,43.369c-0.474-0.311-0.607-0.947-0.296-1.421l8.109-13.459c0.311-0.474,0.948-0.606,1.422-0.296
		c0.474,0.311,0.606,0.948,0.296,1.422l-8.11,13.458C85.641,43.547,85.005,43.68,84.531,43.369"/>
	<path clip-path="url(#SVGID_2_)" fill="#FFFFFF" d="M91.887,47.516L91.887,47.516c-0.437-0.361-0.499-1.008-0.137-1.445
		l10.729-13.955c0.361-0.438,1.008-0.499,1.445-0.138c0.437,0.361,0.499,1.008,0.138,1.445l-10.73,13.956
		C92.971,47.815,92.324,47.877,91.887,47.516"/>
	<path clip-path="url(#SVGID_2_)" fill="none" stroke="#FFFFFF" stroke-width="1.25" stroke-miterlimit="10" d="M91.887,47.516
		L91.887,47.516c-0.437-0.361-0.499-1.008-0.137-1.445l10.729-13.955c0.361-0.438,1.008-0.499,1.445-0.138
		c0.437,0.361,0.499,1.008,0.138,1.445l-10.73,13.956C92.971,47.815,92.324,47.877,91.887,47.516"/>
</g>
<g>
	<defs>
		<rect id="SVGID_3_" y="0.001" width="124.988" height="82.067"/>
	</defs>
	<clipPath id="SVGID_4_">
		<use xlink:href="#SVGID_3_"  overflow="visible"/>
	</clipPath>
	
		<path clip-path="url(#SVGID_4_)" fill="none" stroke="#FFFFFF" stroke-width="4" stroke-linecap="round" stroke-linejoin="round" stroke-miterlimit="10" d="
		M11.885,68.197V11c0-4.95,4.05-9,9-9h83.219c4.95,0,9,4.05,9,9v57.197"/>
	
		<path clip-path="url(#SVGID_4_)" fill="none" stroke="#FFFFFF" stroke-width="4" stroke-linecap="round" stroke-linejoin="round" stroke-miterlimit="10" d="
		M75.938,68.658h47.051v6.705c0,2.588-2.535,4.705-5.634,4.705H7.634c-3.099,0-5.634-2.117-5.634-4.705v-6.705h47.051l2.583,2.806
		h21.285L75.938,68.658z"/>
</g>
</svg>
