<svg xmlns="http://www.w3.org/2000/svg" viewBox="0 0 134.792 139.771"><title>Icons</title><path d="M98.5,133.165c-.037-.261-.058-.521-.08-.782-.026-.311-.051-.622-.1-.933-.054-.376-.107-.771-.16-1.167s-.1-.789-.157-1.157a19.481,19.481,0,0,0-.725-3.742,7.017,7.017,0,0,0-2.962-4.1c-.674-.449-5.918-2.392-7.642-3.03-.558-.209-1.126-.418-1.695-.626-1.134-.417-2.308-.848-3.369-1.272-1.156-.421-2.224-.848-3.17-1.269a18.039,18.039,0,0,1-2.452-1.174c-2.581-1.505-3.913-6.517-3.913-8.325.118-1.082.612-1.771,1.751-3.012a22.53,22.53,0,0,0,4.37-8.012c1.155-4.409,2.086-13.258-1.752-18.444-2.13-2.769-5.4-4.225-9.714-4.327h-.416c-4.451.1-7.629,1.52-9.708,4.327-3.817,5.262-2.9,14.07-1.751,18.445a20.79,20.79,0,0,0,4.367,8.009,5.363,5.363,0,0,1,1.532,2.208c.978,2.608-1.465,7.693-3.8,9.029a92.313,92.313,0,0,1-10.682,4.338c-4.619,1.71-7.19,2.73-7.641,3.03a7.774,7.774,0,0,0-2.961,4.094,42.424,42.424,0,0,0-1.134,7.786c2.243,1.2,9.679,3.792,31.991,3.792C87.543,136.854,95.556,134.58,98.5,133.165Z" fill="none"/><path d="M13.611,117.486a5.25,5.25,0,0,0-2.129,2.946,30.877,30.877,0,0,0-.815,5.561c1.724.812,7.013,2.49,21.393,2.723a37.5,37.5,0,0,1,.609-4.318,9.949,9.949,0,0,1,4.108-5.523,41.856,41.856,0,0,1,5.752-2.379q1.117-.42,2.411-.913l1.687-.647,1.273-.487a61.071,61.071,0,0,1-5.993-2.529c-1.926-1.131-3.832-5.071-3.068-7.254a7.133,7.133,0,0,1,1.2-1.762,15.889,15.889,0,0,0,3.219-5.914c.852-3.306,1.533-9.916-1.329-13.7-1.521-2.03-3.873-3.066-7.188-3.169h-.2c-3.307.1-5.658,1.139-7.179,3.169-2.865,3.783-2.183,10.392-1.329,13.7a16.052,16.052,0,0,0,3.315,5.9,3.869,3.869,0,0,1,1.329,2.485c0,1.363-.948,5.309-3.185,6.538a59.082,59.082,0,0,1-8.15,3.284A46.279,46.279,0,0,0,13.611,117.486Z" fill="none"/><path d="M100.062,124.372a20.829,20.829,0,0,1,.932,4.366c15.78-.114,21.439-1.9,23.237-2.745a30.9,30.9,0,0,0-.819-5.57,5.23,5.23,0,0,0-2.116-2.929,45.505,45.505,0,0,0-5.745-2.292,59.069,59.069,0,0,1-8.158-3.289c-2.226-1.224-3.174-5.17-3.174-6.533a3.862,3.862,0,0,1,1.327-2.483,16.07,16.07,0,0,0,3.318-5.908c.853-3.306,1.535-9.915-1.328-13.7-1.522-2.03-3.874-3.066-7.188-3.169h-.2c-3.307.1-5.658,1.139-7.18,3.169-2.863,3.783-2.182,10.392-1.329,13.7a15.874,15.874,0,0,0,3.211,5.9,7.174,7.174,0,0,1,1.207,1.761c.767,2.193-1.138,6.132-3.055,7.26a70.4,70.4,0,0,1-7.142,2.962c.579.233,1.2.468,1.812.7a66.845,66.845,0,0,1,8.287,3.3A9.661,9.661,0,0,1,100.062,124.372Z" fill="none"/><path d="M126.949,127.318v-.666a33.784,33.784,0,0,0-1.068-7.129,7.925,7.925,0,0,0-3.257-4.337,49.558,49.558,0,0,0-6.377-2.556,64.05,64.05,0,0,1-7.762-3.145c-.8-.445-1.633-2.968-1.765-3.974a8.92,8.92,0,0,1,.667-.7,18.972,18.972,0,0,0,3.958-7.167c.271-1.053,2.524-10.454-1.729-16.125-2.1-2.756-5.244-4.207-9.366-4.312h-.428c-4.115.1-7.264,1.556-9.36,4.313-3.627,4.839-2.715,12.667-1.727,16.127a19,19,0,0,0,3.936,7.142,2.734,2.734,0,0,0,.395.449,3.433,3.433,0,0,1,.314.335c.256.683-.889,3.415-1.79,3.916a70.291,70.291,0,0,1-7.183,2.964l-.589.184c-.692.3-1.3.5-1.9.7a28.016,28.016,0,0,1-4.413-1.955c-1.316-.753-2.51-4.5-2.512-5.673a5.488,5.488,0,0,1,.883-1.11,23.786,23.786,0,0,0,5.012-9.276c.354-1.36,3.306-13.495-2.252-20.863-2.563-3.525-6.6-5.368-12-5.475H66.1c-5.421.217-9.457,2.093-11.991,5.577-5.559,7.37-2.61,19.508-2.254,20.868a24.722,24.722,0,0,0,4.986,9.137c.083.123.225.293.378.474a3.828,3.828,0,0,1,.541.732c.387,1.163-1.267,4.837-2.522,5.609a34.727,34.727,0,0,1-3.43,1.537c-.237-.089-.47-.175-.726-.284l-.588-.184a69.961,69.961,0,0,1-7.188-2.967c-.9-.5-2.041-3.232-1.8-3.89a2.537,2.537,0,0,1,.325-.359,2.721,2.721,0,0,0,.394-.448,19,19,0,0,0,3.935-7.139c.989-3.463,1.9-11.291-1.727-16.131-2.094-2.756-5.243-4.207-9.365-4.312H34.64c-4.115.1-7.264,1.556-9.359,4.313-4.25,5.667-2,15.07-1.728,16.127a18.99,18.99,0,0,0,3.964,7.171,8.81,8.81,0,0,1,.661.694c-.132,1.006-.966,3.529-1.77,3.977a64.128,64.128,0,0,1-7.759,3.142,49.692,49.692,0,0,0-6.376,2.556,7.93,7.93,0,0,0-3.256,4.334,33.834,33.834,0,0,0-1.07,7.148v.65l.5.377c.951.846,5.4,3.543,23.353,3.833l-.013.146c-.069.81-.13,1.519-.185,2.055v.629l.494.494c1.154,1.155,7.048,4.92,34.425,4.92,26.854,0,33.133-3.84,34.425-5.025l.494-.494v-.629a16.335,16.335,0,0,0-.149-1.794l-.032-.28c19.485-.13,24.2-2.98,25.164-3.841ZM30.678,105.38a3.869,3.869,0,0,0-1.329-2.485,16.052,16.052,0,0,1-3.315-5.9c-.854-3.309-1.536-9.918,1.329-13.7,1.521-2.03,3.872-3.066,7.179-3.169h.2c3.315.1,5.667,1.139,7.188,3.169,2.862,3.783,2.181,10.392,1.329,13.7a15.889,15.889,0,0,1-3.219,5.914,7.133,7.133,0,0,0-1.2,1.762c-.764,2.183,1.142,6.122,3.068,7.254a61.071,61.071,0,0,0,5.993,2.529l-1.273.487-1.687.647q-1.293.493-2.411.913a41.856,41.856,0,0,0-5.752,2.379,9.949,9.949,0,0,0-4.108,5.523,37.5,37.5,0,0,0-.609,4.318c-14.38-.234-19.668-1.912-21.393-2.723a30.877,30.877,0,0,1,.815-5.561,5.25,5.25,0,0,1,2.129-2.946,46.279,46.279,0,0,1,5.732-2.283,59.082,59.082,0,0,0,8.15-3.284C29.73,110.689,30.678,106.743,30.678,105.38Zm4.992,19.9a7.774,7.774,0,0,1,2.961-4.094c.451-.3,3.022-1.32,7.641-3.03a92.313,92.313,0,0,0,10.682-4.338c2.338-1.336,4.781-6.421,3.8-9.029a5.363,5.363,0,0,0-1.532-2.208,20.79,20.79,0,0,1-4.367-8.009c-1.146-4.375-2.067-13.183,1.751-18.445,2.079-2.807,5.257-4.223,9.708-4.327h.416c4.315.1,7.584,1.558,9.714,4.327,3.837,5.186,2.906,14.034,1.752,18.444a22.53,22.53,0,0,1-4.37,8.012c-1.138,1.241-1.632,1.93-1.751,3.012,0,1.807,1.332,6.82,3.913,8.325a18.039,18.039,0,0,0,2.452,1.174c.946.421,2.015.848,3.17,1.269,1.061.424,2.235.855,3.369,1.272.569.208,1.137.417,1.695.626,1.724.638,6.968,2.582,7.642,3.03a7.017,7.017,0,0,1,2.962,4.1A19.481,19.481,0,0,1,98,129.127c.052.368.1.763.157,1.157s.106.792.16,1.167c.052.311.077.622.1.933.022.261.043.521.08.782-2.949,1.415-10.961,3.689-31.978,3.689-22.313,0-29.749-2.593-31.991-3.792A42.424,42.424,0,0,1,35.67,125.277Zm50.187-10.4A70.4,70.4,0,0,0,93,111.916c1.917-1.128,3.823-5.067,3.055-7.26a7.174,7.174,0,0,0-1.207-1.761,15.874,15.874,0,0,1-3.211-5.9c-.853-3.309-1.534-9.918,1.329-13.7,1.521-2.03,3.873-3.066,7.18-3.169h.2c3.315.1,5.666,1.139,7.188,3.169,2.863,3.783,2.181,10.392,1.328,13.7a16.07,16.07,0,0,1-3.318,5.908,3.862,3.862,0,0,0-1.327,2.483c0,1.363.948,5.309,3.174,6.533a59.069,59.069,0,0,0,8.158,3.289,45.505,45.505,0,0,1,5.745,2.292,5.23,5.23,0,0,1,2.116,2.929,30.9,30.9,0,0,1,.819,5.57c-1.8.845-7.457,2.632-23.237,2.745a20.829,20.829,0,0,0-.932-4.366,9.661,9.661,0,0,0-4.106-5.5,66.845,66.845,0,0,0-8.287-3.3C87.059,115.346,86.435,115.111,85.856,114.878Z" fill="#f26a26"/><path d="M2.9,83.528H0V63.358c0-12.452,6.439-20.19,18.621-22.377l.745-.133,8.928,8.929,9.522-9.522.561-.025c10.2-.463,19.79-2.8,38.6-13.368a7.7,7.7,0,0,1,3.765-.968c2.97,0,4.419,2.152,5.7,4.051,4.724,7.02,4.06,9.21-.5,12.636-9.371,7.042-22.608,13.7-36.45,18.341v4.265H46.6V58.827l1-.327C61.3,54.007,74.986,47.191,84.2,40.266c3.132-2.352,3.783-2.842-.161-8.7-1.424-2.114-2.065-2.772-3.3-2.772a4.8,4.8,0,0,0-2.347.6C59.518,39.994,49.254,42.56,39.072,43.1L28.294,53.872l-9.9-9.9C7.968,46.086,2.9,52.435,2.9,63.358Z" fill="#f26a26"/><path d="M28.3,38.886A17.219,17.219,0,1,1,45.515,21.671,17.237,17.237,0,0,1,28.3,38.886Zm0-31.542A14.323,14.323,0,1,0,42.619,21.671,14.341,14.341,0,0,0,28.3,7.344Z" fill="#f26a26"/><polygon points="33.496 46.599 36.392 43.659 36.392 35.029 33.496 36.335 33.496 46.599" fill="#f26a26"/><path d="M126.1,0H42.184a8.718,8.718,0,0,0-8.526,7.041L36.407,8.4a5.794,5.794,0,0,1,5.777-5.5H126.1A5.8,5.8,0,0,1,131.9,8.688V57.94a5.8,5.8,0,0,1-5.792,5.792H46.6v2.9H126.1a8.714,8.714,0,0,0,8.688-8.688V8.688A8.714,8.714,0,0,0,126.1,0Z" fill="#f26a26"/></svg>