<?xml version="1.0" encoding="utf-8"?>
<!-- Generator: Adobe Illustrator 20.1.0, SVG Export Plug-In . SVG Version: 6.00 Build 0)  -->
<svg version="1.1" id="Layer_1" xmlns="http://www.w3.org/2000/svg" xmlns:xlink="http://www.w3.org/1999/xlink" x="0px" y="0px"
	 viewBox="0 0 400 215" style="enable-background:new 0 0 400 215;" xml:space="preserve">
<style type="text/css">
	.st0{fill:#005DAA;}
	.st1{fill:#FFFFFF;}
	.st2{fill:#005DAA;stroke:#FFFFFF;stroke-width:0.25;}
</style>
<g>
	<g>
		<polygon class="st0" points="46.2,143.9 46.2,193.8 63.9,193.8 46.4,143.9 		"/>
		<path class="st0" d="M109.4,86.9c5,0,7.3-2.9,7.3-8.8V17.8h-14.6v60.4C102.1,84,104.4,86.9,109.4,86.9z"/>
		<path class="st0" d="M130.4,17.8v59.8c0,13.7-8,21.3-21,21.3c-13.1,0-21-7.5-21-21.3V17.8H62.1c8.8,2.9,13.1,11.2,13.1,20.8v5.9
			H61.5v-6.2c0-6.8-3.1-9.6-6.6-9.6c-5.5,0-7.3,2.9-7.3,8.9V78c0,6,1.8,8.9,7.3,8.9c5,0,6.6-2.9,6.6-8.1v-9.6h13.7v9.2
			c0,11.3-6.6,20.5-20.4,20.5c-14.4,0-21-9.2-21-20.5V37.1c0-9,4.2-16.6,13.2-19.4H21.4v176.1h12.4v-80h12.7l16.7,45.7h0.2v-45.7
			h12.4v80h26.4v-33.2l-16.6-46.7h14l9.6,30.5h0.2l9.2-30.5h14L116,160.6v33.2h81.4V17.8H130.4z"/>
		<path class="st1" d="M33.8,37.1v41.2c0,11.3,6.6,20.5,21,20.5c13.7,0,20.4-9.2,20.4-20.5v-9.2H61.5v9.6c0,5.2-1.7,8.1-6.6,8.1
			c-5.5,0-7.3-2.9-7.3-8.9V37.5c0-6,1.8-8.9,7.3-8.9c3.5,0,6.6,2.9,6.6,9.6v6.2h13.7v-5.9c0-9.6-4.3-17.9-13.1-20.8H47
			C38,20.5,33.8,28.1,33.8,37.1z"/>
		<polygon class="st1" points="63.4,113.9 63.4,159.6 63.2,159.6 46.5,113.9 33.8,113.9 33.8,193.8 46.2,193.8 46.2,143.9 
			46.4,143.9 63.9,193.8 75.9,193.8 75.9,113.9 		"/>
		<polygon class="st1" points="132.7,113.9 118.7,113.9 109.5,144.3 109.3,144.3 99.6,113.9 85.7,113.9 102.3,160.6 102.3,193.8 
			116,193.8 116,160.6 		"/>
		<path class="st1" d="M109.4,98.8c13.1,0,21-7.5,21-21.3V17.8h-13.7v60.4c0,5.9-2.3,8.8-7.3,8.8c-5,0-7.3-2.9-7.3-8.8V17.8H88.3
			v59.8C88.3,91.3,96.3,98.8,109.4,98.8z"/>
	</g>
</g>
<g>
	<path class="st2" d="M208.8,17.8h22.7v2.5h-9.8v30.6h-3V20.2h-9.8V17.8z"/>
	<path class="st2" d="M235.8,50.9V17.8h2.8v13c2.6-2.7,4.7-4.2,8.2-4.2c5,0,7.1,2.8,7.1,8v16.3H251v-16c0-3.9-1.2-6.1-4.9-6.1
		c-2.9,0-4.6,1.8-7.6,4.5v17.6H235.8z"/>
	<path class="st2" d="M260.1,39c0,5.4,2.2,10.1,7.7,10.1c3.1,0,4.6-1.1,7-4.8l2.2,1.2c-2.6,4.2-4.9,5.8-9.4,5.8
		c-6.2,0-10.2-4-10.2-12.4c0-7.4,3.8-12.4,9.8-12.4c6.5,0,9.5,5.1,9.5,12.5H260.1z M273.9,36.8c-0.6-4.9-2.7-8-6.9-8.1
		c-4.9,0-6.9,4.9-7,8.1H273.9z"/>
	<path class="st2" d="M311.1,27.5c-1.4-4.9-4.1-7.7-8.1-7.7c-6.6,0-9.4,6.4-9.4,14.5s2.9,14.5,9.8,14.5c5.3,0,7.2-3.8,8.3-8.1
		l2.8,0.5c-1.2,5.9-4.3,10-11.2,10c-8,0-12.7-6.8-12.7-17s4.7-17,12.7-17c5.9,0,9.2,4.2,10.6,9.6L311.1,27.5z"/>
	<path class="st2" d="M319.2,21.8v-4h2.8v4H319.2z M321.9,50.9h-2.8V27h2.8V50.9z"/>
	<path class="st2" d="M329.7,27v-7.8h2.8V27h5.2v2.2h-5.2v17.5c0,1.6,0.7,2.4,2.4,2.4c0.9,0,1.9-0.2,2.8-0.5v2.3
		c-0.9,0.1-1.9,0.4-2.8,0.4c-3.9,0-5.2-1.3-5.2-4.2V29.2h-3.6V27H329.7z"/>
	<path class="st2" d="M350.3,46.4L350.3,46.4l6.7-19.4h2.9l-8.9,25.5c-1.6,4.7-3.3,6.7-7.6,6.7c-1.2,0-1.9-0.1-2.6-0.3v-2.2
		c0.8,0.1,1.7,0.3,2.8,0.3c1.9,0,4-1.7,5.4-6.6L340.7,27h3L350.3,46.4z"/>
	<path class="st2" d="M212.9,65.7v22.6c0,6.3,3.1,8.5,8.9,8.5c5.9,0,8.9-2.2,8.9-8.5V65.7h3V88c0,7.5-3.9,11.3-12,11.3
		c-8,0-12-3.8-12-11.3V65.7H212.9z"/>
	<path class="st2" d="M238.7,98.8V74.9h2.8v3.8c2.6-2.7,4.7-4.2,8.2-4.2c5,0,7.1,2.8,7.1,8v16.3h-2.7v-16c0-3.9-1.2-6.1-4.9-6.1
		c-2.9,0-4.6,1.8-7.6,4.5v17.6H238.7z"/>
	<path class="st2" d="M261.8,69.7v-4h2.8v4H261.8z M264.6,98.8h-2.8V74.9h2.8V98.8z"/>
	<path class="st2" d="M268.5,74.9h2.9l6.5,19.6h0.1l6.6-19.6h2.9l-8.2,23.8h-2.7L268.5,74.9z"/>
	<path class="st2" d="M291.4,87c0,5.4,2.2,10.1,7.7,10.1c3.1,0,4.6-1.1,7-4.8l2.2,1.2c-2.6,4.2-4.9,5.8-9.4,5.8
		c-6.2,0-10.2-4-10.2-12.4c0-7.4,3.8-12.4,9.8-12.4c6.5,0,9.5,5.1,9.5,12.5H291.4z M305.3,84.8c-0.6-4.9-2.7-8-6.9-8.1
		c-4.9,0-6.9,4.9-7,8.1H305.3z"/>
	<path class="st2" d="M312.4,98.8V74.9h2.8v4.5h0.1c1.3-2.9,3.9-5,6.9-5h1.2v2.7h-1.2c-3,0-7,3.6-7,8.2v13.5H312.4z"/>
	<path class="st2" d="M327,93c2.2,3.2,4.3,4,7.4,4c3,0,5.3-2,5.3-4.5c0-6.9-14-3-14-11.5c0-4.5,3.5-6.5,7.6-6.5c4,0,6.5,1.6,8.2,4.3
		l-2.1,1.5c-1.6-2.2-3.3-3.6-6.2-3.6c-2.7,0-4.7,1.3-4.7,4.2c0,5.8,14,2.4,14,11.6c0,4.3-3.9,6.7-8.3,6.7c-3.7,0-7-1.5-9.2-4.8
		L327,93z"/>
	<path class="st2" d="M347,69.7v-4h2.8v4H347z M349.8,98.8H347V74.9h2.8V98.8z"/>
	<path class="st2" d="M357.1,74.9v-7.8h2.8v7.8h5.2v2.2h-5.2v17.5c0,1.6,0.7,2.4,2.4,2.4c0.9,0,1.9-0.2,2.8-0.5v2.3
		c-0.9,0.1-1.9,0.4-2.8,0.4c-3.9,0-5.2-1.3-5.2-4.2V77.1h-3.6v-2.2H357.1z"/>
	<path class="st2" d="M377.5,94.3L377.5,94.3l6.7-19.4h2.9l-8.9,25.5c-1.6,4.7-3.3,6.7-7.6,6.7c-1.2,0-1.9-0.1-2.6-0.3v-2.2
		c0.8,0.1,1.7,0.3,2.8,0.3c1.9,0,4-1.7,5.4-6.6l-8.3-23.5h3L377.5,94.3z"/>
	<path class="st2" d="M229.4,134.3c0,6.5-2.4,12.4-9.8,12.4c-7.4,0-9.8-5.9-9.8-12.4c0-6.5,2.4-12.4,9.8-12.4
		C227,121.9,229.4,127.8,229.4,134.3z M212.5,134.3c0,6.5,2.2,10.2,7.1,10.2c4.9,0,7.1-3.7,7.1-10.2c0-6.5-2.2-10.2-7.1-10.2
		C214.7,124.1,212.5,127.8,212.5,134.3z"/>
	<path class="st2" d="M237.5,124.5v21.6h-2.8v-21.6h-3.9v-2.2h3.9V119c0-4.1,1.7-6.3,5.7-6.3c1,0,2,0.2,3,0.4v2.3
		c-0.9-0.3-1.7-0.5-2.7-0.5c-2.2,0-3.3,1.1-3.3,3.8v3.7h4.9v2.2H237.5z"/>
	<path class="st2" d="M209.8,160.7h5.1l15.7,27.6h0.1v-27.6h3v33.1h-3.1L213,163.2h-0.1v30.6h-3V160.7z"/>
	<path class="st2" d="M240.9,182c0,5.4,2.2,10.1,7.7,10.1c3.1,0,4.6-1.1,7-4.8l2.2,1.2c-2.6,4.2-4.9,5.8-9.4,5.8
		c-6.2,0-10.2-4-10.2-12.4c0-7.4,3.8-12.4,9.8-12.4c6.5,0,9.5,5.1,9.5,12.5H240.9z M254.8,179.8c-0.6-4.9-2.7-8-6.9-8.1
		c-4.9,0-6.9,4.9-7,8.1H254.8z"/>
	<path class="st2" d="M259.8,170h2.8l5.2,19.2h0.1l5.5-19.2h2.7l5.3,19.2h0.1l5.4-19.2h2.8l-6.9,23.8H280l-5.4-19.2h-0.1l-5.3,19.2
		h-2.8L259.8,170z"/>
	<path class="st2" d="M309.2,179.8l-10.1-19.1h3.4l8.2,16.4l8.7-16.4h3.4l-10.5,19.1v14h-3V179.8z"/>
	<path class="st2" d="M339.2,181.9c0,6.5-2.4,12.4-9.8,12.4c-7.4,0-9.8-5.9-9.8-12.4c0-6.5,2.4-12.4,9.8-12.4
		C336.8,169.5,339.2,175.4,339.2,181.9z M322.4,181.9c0,6.5,2.2,10.2,7.1,10.2c4.9,0,7.1-3.7,7.1-10.2c0-6.5-2.2-10.2-7.1-10.2
		C324.5,171.7,322.4,175.4,322.4,181.9z"/>
	<path class="st2" d="M343.1,193.8V170h2.8v4.5h0.1c1.3-2.9,3.9-5,6.9-5h1.2v2.7h-1.2c-3,0-7,3.6-7,8.2v13.5H343.1z"/>
	<path class="st2" d="M357.8,193.8v-33.1h2.8v21.9l11.1-12.7h3.2l-7.7,8.9l8.9,14.9h-3.1l-7.6-13l-4.7,5.3v7.7H357.8z"/>
</g>
</svg>
