<svg xmlns="http://www.w3.org/2000/svg" xmlns:xlink="http://www.w3.org/1999/xlink" viewBox="0 0 696.883 218.679"><defs><clipPath id="a"><rect width="696.883" height="218.679" fill="none"/></clipPath></defs><title>Icons</title><g clip-path="url(#a)"><path d="M11.806,161.706H37.252c10.671,0,16.451,1.564,16.451,9.818,0,8.331-5.78,9.908-16.451,9.908H11.806Zm21.435,29.573,19.01,25.763H66.769L46.556,190.208l1.024-.06c8.922-.5,17.925-6.535,17.925-18.9,0-13.615-7.632-19.168-26.346-19.168H0v64.96H11.806V191.056H33.078Z" fill="#474c55"/><path d="M136.46,152.082H83.31v64.96h54.239a4.994,4.994,0,1,0,0-9.989H95.116V188.511h31.1a4.994,4.994,0,0,0,0-9.989h-31.1V162.071H136.46a4.995,4.995,0,1,0,0-9.989" fill="#474c55"/><path d="M224.951,154.734a5.612,5.612,0,0,0-4.782-2.653,5.672,5.672,0,0,0-5.087,3.2l-24.07,50.227-.493-1.041L167.387,155.33a5.651,5.651,0,1,0-10.2,4.859l27.451,56.853H197.4L225.23,160.2a5.614,5.614,0,0,0-.279-5.468" fill="#474c55"/></g><path d="M264.7,160.6l14.673,31.278H250.024Zm19.25,41.267.15.322,6.754,14.852h12.4l-31.543-64.96H257.677l-31.985,64.96h12.483l7-15.174Z" fill="#474c55"/><g clip-path="url(#a)"><path d="M371.456,157.078a5,5,0,0,0-5-5H305.583a4.994,4.994,0,0,0,0,9.989H330.12v54.972h11.806V162.07h24.533a5,5,0,0,0,5-4.992" fill="#474c55"/><path d="M391.031,152.082a5.91,5.91,0,0,0-5.9,5.905v31.257c0,19.532,11.618,29.435,34.527,29.435s34.522-9.9,34.522-29.435V157.987a5.9,5.9,0,1,0-11.806,0v30.349c0,9.478-2.584,20.354-22.716,20.354s-22.721-10.876-22.721-20.354V157.987a5.91,5.91,0,0,0-5.9-5.905" fill="#474c55"/><path d="M485.988,161.706h25.446c10.67,0,16.451,1.564,16.451,9.818,0,8.331-5.781,9.908-16.451,9.908H485.988Zm21.435,29.573,19.009,25.763h14.519l-20.214-26.834,1.025-.06c8.921-.5,17.925-6.535,17.925-18.9,0-13.615-7.632-19.168-26.346-19.168H474.182v64.96h11.806V191.056H507.26Z" fill="#474c55"/><path d="M610.643,152.082h-53.15v64.96h54.239a4.994,4.994,0,1,0,0-9.989H569.3V188.511h28.574a4.994,4.994,0,0,0,0-9.989H569.3V162.071h41.344a4.995,4.995,0,1,0,0-9.989" fill="#474c55"/><path d="M245.557,119.487h0a5.578,5.578,0,0,1-5.947,5.183l-.37-.026a5.578,5.578,0,1,1,.765-11.129l.37.025a5.578,5.578,0,0,1,5.182,5.947" fill="#f26926"/><path d="M285,97.076h0a5.578,5.578,0,0,1-7.629-2l-5.73-8.928a5.577,5.577,0,0,1,9.632-5.626l5.731,8.929a5.578,5.578,0,0,1-2,7.629" fill="#f26926"/><path d="M327.282,81.018h0a5.577,5.577,0,0,1-6.779-4.033l-5.974-19.917a5.578,5.578,0,0,1,10.812-2.747l5.974,19.918a5.579,5.579,0,0,1-4.033,6.779" fill="#f26926"/><path d="M370.96,70.563h0a5.578,5.578,0,0,1-5.891-5.245L361.931,33.6a5.577,5.577,0,1,1,11.136-.645l3.139,31.712a5.578,5.578,0,0,1-5.246,5.891" fill="#f26926"/><path d="M415.122,65.669h0a5.576,5.576,0,0,1-5.062-6.049l2.092-42.507a5.577,5.577,0,1,1,11.111.986l-2.092,42.508a5.578,5.578,0,0,1-6.049,5.062" fill="#f26926"/><path d="M460.026,66.123h0a5.578,5.578,0,0,1-4.213-6.669L465.53,7.022a5.577,5.577,0,1,1,10.881,2.456L466.7,61.91a5.578,5.578,0,0,1-6.669,4.213" fill="#f26926"/><path d="M503.907,72.169h0a5.577,5.577,0,0,1-3.348-7.142L520.353,3.682a5.578,5.578,0,1,1,10.49,3.794L511.049,68.822a5.579,5.579,0,0,1-7.142,3.348" fill="#f26926"/><path d="M547.139,83.775h0a5.579,5.579,0,0,1-2.457-7.5L576.121,8.17a5.577,5.577,0,1,1,9.952,5.039L554.635,81.318a5.579,5.579,0,0,1-7.5,2.457" fill="#f26926"/><path d="M589.5,101.09h0a5.577,5.577,0,0,1-1.608-7.722L631.946,20.25a5.578,5.578,0,0,1,9.33,6.115L597.219,99.483a5.578,5.578,0,0,1-7.722,1.607" fill="#f26926"/><path d="M629.461,123.62h0a5.578,5.578,0,0,1-.747-7.853l58.291-75.816a5.577,5.577,0,1,1,8.6,7.1l-58.292,75.818a5.578,5.578,0,0,1-7.852.747" fill="#f26926"/></g></svg>