<?xml version="1.0" encoding="utf-8"?>
<!-- Generator: Adobe Illustrator 20.1.0, SVG Export Plug-In . SVG Version: 6.00 Build 0)  -->
<svg version="1.1" id="Layer_1" xmlns="http://www.w3.org/2000/svg" xmlns:xlink="http://www.w3.org/1999/xlink" x="0px" y="0px"
	 viewBox="0 0 491.1 123.2" style="enable-background:new 0 0 491.1 123.2;" xml:space="preserve">
<style type="text/css">
	.st0{fill:#FFFFFF;}
</style>
<title>Icons</title>
<path class="st0" d="M26.8,107.1c5-0.3,10.1-3.7,10.1-10.6c0-7.7-4.3-10.8-14.8-10.8H0v36.6h6.6v-14.6h12l0.1,0.1l10.7,14.5h8.2
	l-11.4-15.1L26.8,107.1z M6.6,102.2V91.1H21c6,0,9.3,0.9,9.3,5.5c0,4.7-3.3,5.6-9.3,5.6H6.6z M80.3,119.4c0,1.6-1.3,2.8-2.8,2.8
	H46.9V85.6h29.9c1.6,0,2.8,1.3,2.8,2.8s-1.3,2.8-2.8,2.8H53.6v9.3h17.5c1.6,0,2.8,1.3,2.8,2.8s-1.3,2.8-2.8,2.8H53.6v10.4h23.9
	C79,116.6,80.3,117.9,80.3,119.4z M126.8,90.2l-15.7,32H104l-15.5-32c-0.8-1.6-0.1-3.5,1.4-4.3c1.6-0.8,3.5-0.1,4.3,1.4
	c0,0,0,0.1,0,0.1l13,27.7l0.3,0.6l13.6-28.3c0.5-1.1,1.6-1.8,2.9-1.8c1.8,0,3.2,1.4,3.2,3.2C127.2,89.3,127,89.8,126.8,90.2
	L126.8,90.2z M145.1,85.6l-18,36.6h7l3.9-8.5h21.8l0.1,0.2l3.8,8.4h7L153,85.6H145.1z M140.8,108l8.3-17.6l8.3,17.6H140.8z
	 M209.2,88.4c0,1.6-1.3,2.8-2.8,2.8h-13.8v31h-6.6v-31h-13.8c-1.6,0-2.8-1.3-2.8-2.8s1.3-2.8,2.8-2.8h34.3
	C207.9,85.6,209.2,86.9,209.2,88.4L209.2,88.4z M255.8,89v17.6c0,11-6.5,16.6-19.4,16.6s-19.4-5.6-19.4-16.6V89
	c0-1.8,1.5-3.3,3.3-3.3c1.8,0,3.3,1.5,3.3,3.3c0,0,0,0,0,0V106c0,5.3,1.5,11.5,12.8,11.5s12.8-6.1,12.8-11.5V89
	c0-1.8,1.5-3.3,3.3-3.3C254.3,85.6,255.7,87.1,255.8,89C255.7,89,255.7,89,255.8,89L255.8,89z M293.8,107.1
	c5-0.3,10.1-3.7,10.1-10.6c0-7.7-4.3-10.8-14.8-10.8h-22v36.6h6.6v-14.6h12l0.1,0.1l10.7,14.5h8.2l-11.4-15.1L293.8,107.1z
	 M273.7,102.2V91.1H288c6,0,9.3,0.9,9.3,5.5c0,4.7-3.3,5.6-9.3,5.6L273.7,102.2z M347.3,119.4c0,1.6-1.3,2.8-2.8,2.8h-30.5V85.6
	h29.9c1.6,0,2.8,1.3,2.8,2.8s-1.3,2.8-2.8,2.8h-23.3v9.3h16.1c1.6,0,2.8,1.3,2.8,2.8s-1.3,2.8-2.8,2.8h-16.1v10.4h23.9
	C346,116.6,347.3,117.9,347.3,119.4L347.3,119.4z"/>
<path class="st0" d="M138.3,67.3c-0.1,1.7-1.6,3-3.3,2.9l-0.2,0c-1.7-0.1-3-1.6-2.9-3.4c0.1-1.7,1.6-3,3.3-2.9l0.2,0
	C137.1,64.1,138.4,65.6,138.3,67.3z M158.4,45.3c-0.9-1.5-2.8-2-4.3-1.2c-1.5,0.9-2,2.8-1.2,4.3c0,0,0,0.1,0,0.1l3.2,5
	c0.9,1.5,2.8,2,4.3,1.2c1.5-0.9,2-2.8,1.2-4.3c0,0,0-0.1,0-0.1L158.4,45.3z M183.2,30.6c-0.5-1.7-2.2-2.7-3.9-2.2
	c-1.6,0.4-2.6,2.1-2.2,3.8l3.4,11.2c0.4,1.7,2.1,2.7,3.8,2.3c1.7-0.4,2.7-2.1,2.3-3.8c0,0,0-0.1,0-0.1L183.2,30.6z M206.8,15.6
	L206.8,15.6c-1.7,0.1-3.1,1.6-3,3.3l1.8,17.9c0.1,1.7,1.5,3.1,3.3,3c1.7-0.1,3.1-1.5,3-3.3c0,0,0-0.1,0-0.1l-1.8-17.9
	C210,16.8,208.5,15.5,206.8,15.6L206.8,15.6z M235.5,6.8c-1.7-0.2-3.3,1.1-3.4,2.9l-1.2,23.9c-0.2,1.7,1.1,3.3,2.8,3.4
	c1.7,0.2,3.3-1.1,3.4-2.8c0,0,0,0,0-0.1l1.2-23.9C238.5,8.5,237.2,6.9,235.5,6.8L235.5,6.8z M265.9,1.6c-1.7-0.4-3.4,0.7-3.8,2.4
	l-5.5,29.5c-0.4,1.7,0.7,3.4,2.4,3.7c1.7,0.3,3.3-0.7,3.7-2.3l5.5-29.5C268.6,3.6,267.6,2,265.9,1.6L265.9,1.6z M297,0.2
	c-1.6-0.6-3.4,0.3-4,1.9l-11.1,34.5c-0.6,1.6,0.3,3.4,1.9,4c1.6,0.6,3.4-0.3,4-1.9l11.1-34.5C299.5,2.6,298.7,0.8,297,0.2z
	 M328.6,3.2c-1.5-0.8-3.4-0.2-4.2,1.4L306.7,43c-0.7,1.6,0,3.4,1.5,4.2c1.5,0.7,3.3,0.1,4.1-1.3L330,7.4
	C330.8,5.9,330.2,4,328.6,3.2L328.6,3.2z M360.2,10.5c-1.5-1-3.4-0.5-4.3,0.9L331,52.6c-0.9,1.5-0.5,3.4,1,4.3
	c1.4,0.9,3.3,0.5,4.3-0.9l24.8-41.2C362.1,13.4,361.6,11.5,360.2,10.5z M391.3,22.1c-1.3-1.1-3.3-0.9-4.4,0.4L354,65.2
	c-1.1,1.4-0.8,3.3,0.5,4.4c1.3,1,3.2,0.9,4.3-0.4l32.8-42.7C392.8,25.2,392.6,23.2,391.3,22.1C391.3,22.1,391.3,22.1,391.3,22.1
	L391.3,22.1z"/>
<path class="st0" d="M366.4,85.6h21.5c7.4,0,14.2,2.1,14.2,10.5c0,8.4-6.8,10.5-14.2,10.5h-17v15.6h-4.4V85.6z M370.8,102.7h15.9
	c7.4,0,11.1-1.6,11.1-6.6c0-5-3.7-6.6-11.1-6.6h-15.9V102.7z"/>
<path class="st0" d="M408.3,85.6h21.2c5.8,0,14.4,1.3,14.4,10.2c0,7.7-7.1,9.9-11.5,10.1l12.1,16.3H439L427.2,106h-14.4v16.2h-4.4
	V85.6z M412.8,102.1h15.7c6.4,0,11.2-0.9,11.2-6.3c0-5.3-4.8-6.3-11.2-6.3h-15.7V102.1z"/>
<path class="st0" d="M469.6,84.7c12.5,0,21.5,7.3,21.5,19.5c0,13-10.9,19-21.5,19s-21.5-6-21.5-19C448.2,92,457.2,84.7,469.6,84.7z
	 M469.6,119.2c8.9,0,16.9-4.7,16.9-15.9c0-8.2-6.3-14.9-16.9-14.9s-16.9,6.8-16.9,14.9C452.7,114.5,460.6,119.2,469.6,119.2
	L469.6,119.2z"/>
</svg>
