<svg xmlns="http://www.w3.org/2000/svg" viewBox="0 0 144.901 115.981"><title>Icons</title><path d="M121.992,61.36a8.326,8.326,0,0,1-1.971,1.78c-.4.9-.815,1.7-1.236,2.466v5.66h-3.47a24.994,24.994,0,0,1-2.35,3.207h16.388v5.564c0,1.857-2.024,3.427-4.421,3.427h-1.921c1.444.731,3.145,1.626,4.967,2.652a6.686,6.686,0,0,0,4.582-6.079V72.87a1.6,1.6,0,0,0-1.6-1.6h-8.964Z" fill="#f26a26"/><path d="M73.686,83.465H7.627c-2.4,0-4.42-1.569-4.42-3.427V74.474h48l2.285,2.482a1.6,1.6,0,0,0,1.18.518H77.426a1.6,1.6,0,0,0,1.092-.429l2.766-2.571h1.278A23.346,23.346,0,0,1,80.2,71.353a1.584,1.584,0,0,0-.636.343L76.8,74.266H55.373l-2.285-2.482a1.6,1.6,0,0,0-1.18-.518H13.776V11.226a8.027,8.027,0,0,1,8.019-8.019h88.972a8.027,8.027,0,0,1,8.019,8.019V25.248a28.956,28.956,0,0,1,3.207,6.948V11.226A11.239,11.239,0,0,0,110.766,0H21.794A11.239,11.239,0,0,0,10.568,11.226v60.04H1.6A1.6,1.6,0,0,0,0,72.87v7.168c0,3.658,3.421,6.634,7.627,6.634H67.19C69.445,85.474,71.672,84.388,73.686,83.465Z" fill="#f26a26"/><path d="M144.9,111.31c0-1.974-.184-3.081-1.871-8.633-1.976-6.5-18.081-15.356-25.571-18.625a1.639,1.639,0,0,0-1.375.025L97.707,92.96l-.12-.064L81.228,84.11a1.64,1.64,0,0,0-1.376-.084c-6.52,2.538-25.562,11.427-27.449,18.72-1.273,4.917-1.831,7.494-1.931,7.961a1.666,1.666,0,0,0-.037.347,4.317,4.317,0,0,0,2.255,4.162c1.5.782,3.294.747,5.2.707l.321-.006c.39-.006.789-.014,1.189-.014h76.528c.541,0,1.079.019,1.6.037l.1,0c.558.02,1.1.039,1.608.039C141.672,115.981,144.9,115.5,144.9,111.31Zm-5.657,1.379c-.474,0-.974-.018-1.492-.037l-.105,0c-.558-.018-1.134-.038-1.714-.038H58.96c-.312,0-.621,0-.925,0-.269.005-.538,0-.8,0l-.4,0-.076-.267h0v.267a6.631,6.631,0,0,1-2.537-.327c-.238-.125-.454-.333-.487-1.032v-.035l.007-.033c.144-.665.706-3.179,1.852-7.612,1.175-4.539,15.063-12.3,24.637-16.153l.117-.047.11.058,16.436,8.826a1.647,1.647,0,0,0,1.5.032l18.446-8.914.114.051c10.917,4.906,21.848,12.632,22.936,16.21,1.644,5.41,1.728,6.2,1.728,7.675C141.609,112.5,141.277,112.689,139.244,112.689Z" fill="#f26a26"/><path d="M72.416,45.638c-.9,2.534.377,8.981,2.577,13.014a5.3,5.3,0,0,0,2.686,2.393l.109.042.044.109a35.834,35.834,0,0,0,3.41,6.307c.376.591.727,1.142,1.079,1.719a18.185,18.185,0,0,0,3.844,4.653l.1.085-.006.135a35.755,35.755,0,0,1-.76,5.974,1.646,1.646,0,0,0,3.2.786,40.321,40.321,0,0,0,.892-7.65,1.637,1.637,0,0,0-.707-1.4,13.7,13.7,0,0,1-3.753-4.3c-.357-.586-.712-1.143-1.062-1.692l-.038-.06a30.965,30.965,0,0,1-3.469-6.639,1.77,1.77,0,0,0-1.5-1.089,1.889,1.889,0,0,1-1.176-.949C75.941,53.518,75.071,48,75.464,46.8l.029-.091.08-.051a1.9,1.9,0,0,1,.877-.14,1.5,1.5,0,0,0,1.221-.485,1.659,1.659,0,0,0,.477-1.219c-.409-11.081,3.684-17.049,7.188-20.1a1.658,1.658,0,0,0,.419-1.917,1.337,1.337,0,0,0-.065-.128l-.121-.215.2-.138a8.623,8.623,0,0,1,4.3-1.061l.1-1.792L91.715,18.4a3.664,3.664,0,0,1,.554-1.638l.159-.279.245.206a10.358,10.358,0,0,0,3.793,1.879,64.348,64.348,0,0,1,8.585,3c8.259,3.272,12.757,11.747,12.332,23.248A1.646,1.646,0,0,0,119,46.525a3,3,0,0,1,.464.046l.039.26.266-.084c.435,1.235-.366,6.685-2.365,10.35a2,2,0,0,1-1.156.972,1.641,1.641,0,0,0-1.318,1.059,32.357,32.357,0,0,1-3.491,6.606c-.385.6-.776,1.215-1.168,1.858a14.773,14.773,0,0,1-3.386,4.118,1.656,1.656,0,0,0-.639,1.312,33.565,33.565,0,0,0,.965,8.046,1.673,1.673,0,0,0,2.023,1.154,1.648,1.648,0,0,0,1.153-2.021,28.683,28.683,0,0,1-.831-6.306l0-.123.092-.082a19.764,19.764,0,0,0,3.437-4.382c.37-.607.738-1.183,1.1-1.752l.262.086-.226-.144a37.472,37.472,0,0,0,3.461-6.354l.04-.1.1-.044a5.451,5.451,0,0,0,2.476-2.327c2.2-4.032,3.478-10.483,2.581-13.022a3.414,3.414,0,0,0-2-2.071l-.167-.067v-.181c-.019-11.97-5.394-21.241-14.379-24.8a66.4,66.4,0,0,0-8.977-3.138,5.808,5.808,0,0,1-2.954-1.61l-.033-.093a1.645,1.645,0,0,0-1.944-1.348c-1.558.311-2.981,2.516-3.513,3.833a6.35,6.35,0,0,0-.432,1.651l-.023.207-.2.029c-2.128.3-5.846,1.34-6.841,4.953a1.813,1.813,0,0,0-.086.89l.02.125-.085.1c-4.25,4.757-6.412,11.184-6.423,19.1v.192l-.182.062A3.417,3.417,0,0,0,72.416,45.638Z" fill="#f26a26"/><path d="M33.729,24.261A10.843,10.843,0,1,0,44.589,13.527,10.8,10.8,0,0,0,33.729,24.261Zm10.859-7.9a7.65,7.65,0,0,1,7.356,7.9,7.645,7.645,0,0,1-7.356,7.889A7.66,7.66,0,0,1,37.2,24.261,7.665,7.665,0,0,1,44.589,16.363Z" fill="#f26a26"/><path d="M58.007,42.612a44.834,44.834,0,0,0-26.888.007c-3.816,1.259-6.833,5.183-6.577,8.566l.781,10.042a1.629,1.629,0,0,0,1.73,1.321H62.113a1.629,1.629,0,0,0,1.73-1.323c.276-3.369.539-6.744.766-10.018C64.9,47.741,61.94,43.893,58.007,42.612ZM60.57,58.729l-.078.985H28.68l-.673-8.7c-.152-1.984,1.685-4.866,4.373-5.755a40.651,40.651,0,0,1,24.37,0c2.445.8,4.579,3.6,4.4,5.776C60.97,53.559,60.775,56.141,60.57,58.729Z" fill="#f26a26"/></svg>