<svg xmlns="http://www.w3.org/2000/svg" viewBox="0 0 147.636 96.325"><title>Icons</title><path d="M134.318,82.135a1.5,1.5,0,0,1-1.5-1.5V12.259A9.269,9.269,0,0,0,123.56,3H24.075a9.269,9.269,0,0,0-9.259,9.259V80.635a1.5,1.5,0,0,1-3,0V12.259A12.272,12.272,0,0,1,24.075,0H123.56a12.272,12.272,0,0,1,12.259,12.259V80.635A1.5,1.5,0,0,1,134.318,82.135Z" fill="#f26a26"/><path d="M139.4,96.325H8.235C3.694,96.325,0,93.129,0,89.2V81.186a1.5,1.5,0,0,1,1.5-1.5H57.747a1.5,1.5,0,0,1,1.1.484l2.643,2.871h24.2l3.177-2.954a1.5,1.5,0,0,1,1.021-.4h56.247a1.5,1.5,0,0,1,1.5,1.5V89.2C147.636,93.129,143.941,96.325,139.4,96.325ZM3,82.686V89.2c0,2.235,2.4,4.124,5.235,4.124H139.4c2.838,0,5.235-1.889,5.235-4.124V82.686H90.479L87.3,85.64a1.5,1.5,0,0,1-1.021.4H60.835a1.5,1.5,0,0,1-1.1-.484l-2.643-2.871Z" fill="#f26a26"/><path d="M76.088,70.72h-6.16A3.32,3.32,0,0,1,66.612,67.4V63.42a.9.9,0,0,0-.484-.664l-2.257-.873a.874.874,0,0,0-.546.173L60.5,64.877a3.412,3.412,0,0,1-4.687,0l-4.361-4.364a3.32,3.32,0,0,1,0-4.687l2.818-2.818a.9.9,0,0,0,.129-.8l-.787-1.92a.938.938,0,0,0-.7-.575H48.926A3.318,3.318,0,0,1,45.609,46.4V40.242a3.321,3.321,0,0,1,3.316-3.316h3.987a.917.917,0,0,0,.666-.476l.771-1.9a.94.94,0,0,0-.08-.92l-2.815-2.814a3.316,3.316,0,0,1,0-4.687l4.353-4.361a3.414,3.414,0,0,1,4.688,0l2.821,2.821a.879.879,0,0,0,.553.176c.034-.016.321-.077.355-.09l1.8-.744a.921.921,0,0,0,.588-.7V19.239a3.32,3.32,0,0,1,3.316-3.316h6.16a3.324,3.324,0,0,1,3.323,3.316v3.984a.913.913,0,0,0,.476.664l2.255.872a.884.884,0,0,0,.55-.172l2.821-2.821a3.414,3.414,0,0,1,4.688-.01l4.361,4.374a3.319,3.319,0,0,1,0,4.687l-2.814,2.814a.908.908,0,0,0-.13.8l.792,1.911a.939.939,0,0,0,.7.581H97.1a3.318,3.318,0,0,1,3.31,3.316V46.4a3.315,3.315,0,0,1-3.31,3.313H93.11a.917.917,0,0,0-.666.476L91.664,52.1a.934.934,0,0,0,.078.91l2.818,2.818a3.318,3.318,0,0,1,0,4.687l-4.35,4.361a3.416,3.416,0,0,1-4.69.009l-2.826-2.827a.872.872,0,0,0-.55-.176c-.035.016-.323.08-.36.093l-1.8.741a.934.934,0,0,0-.58.7V67.4a3.324,3.324,0,0,1-3.323,3.316ZM63.871,58.612a3.851,3.851,0,0,1,1.716.39l1.688.693a4.1,4.1,0,0,1,2.609,3.725V67.4l6.2.045a.055.055,0,0,0,.051-.045V63.42a4.135,4.135,0,0,1,2.7-3.764l1.7-.7a4.4,4.4,0,0,1,4.474.8l2.814,2.815,4.42-4.361L89.43,55.324a4.117,4.117,0,0,1-.74-4.581l.69-1.69a4.094,4.094,0,0,1,3.73-2.607H97.1l.038-6.2L93.11,40.2a4.128,4.128,0,0,1-3.768-2.712l-.7-1.693a4.085,4.085,0,0,1,.787-4.47L92.247,28.5l-4.353-4.421L85.008,26.9a4.238,4.238,0,0,1-4.574.751l-1.695-.7a4.087,4.087,0,0,1-2.6-3.725V19.239l-6.211-.045-.044,4.029a4.129,4.129,0,0,1-2.716,3.766l-1.687.7a4.392,4.392,0,0,1-4.476-.8L58.19,24.079l-4.42,4.364,2.816,2.875a4.128,4.128,0,0,1,.74,4.584l-.682,1.684a4.1,4.1,0,0,1-3.731,2.61H48.926L48.881,46.4l4.032.042a4.128,4.128,0,0,1,3.768,2.712l.7,1.7a4.072,4.072,0,0,1-.792,4.463l-2.818,2.818,4.358,4.422,2.882-2.818a4.1,4.1,0,0,1,2.863-1.134Zm9.137-5.533a9.757,9.757,0,1,1,9.757-9.757,9.764,9.764,0,0,1-9.757,9.757Zm0-16.242a6.485,6.485,0,1,0,6.486,6.485,6.491,6.491,0,0,0-6.486-6.485Z" fill="#f26a26"/></svg>